<svg width="122" height="104" viewBox="0 0 122 104" fill="none" xmlns="http://www.w3.org/2000/svg">
<path d="M57.7675 0.0700302C51.7433 0.688675 46.3276 2.8793 41.6826 6.55061C40.3744 7.57494 37.9403 10.009 36.8856 11.3274C33.4171 15.6579 31.2062 20.9215 30.4557 26.6009C30.2529 28.1729 30.2225 32.0267 30.405 33.6798C31.4192 42.7161 35.4657 52.148 42.6563 62.2086L44.0862 64.2065L32.1088 64.2573C23.2652 64.2978 20.0807 64.3384 19.9286 64.4297C19.817 64.4905 19.604 64.6731 19.462 64.8353C19.1781 65.1396 0.436096 93.212 0.162268 93.7495C0.0202835 94.0233 0 94.5811 0 98.2524C0 102.096 0.0202835 102.471 0.192694 102.847C0.415812 103.344 0.892475 103.77 1.39956 103.912C1.66325 103.993 19.1476 104.013 60.7694 103.993L119.754 103.962L120.19 103.658C120.423 103.486 120.717 103.171 120.829 102.948C121.032 102.563 121.042 102.37 121.072 98.5364C121.093 96.0618 121.062 94.3783 121.001 94.1247C120.93 93.8611 117.482 88.5975 111.225 79.2164C102.848 66.6507 101.499 64.6832 101.154 64.4905L100.758 64.2573H88.8723C82.3308 64.2573 76.976 64.237 76.976 64.2167C76.976 64.1863 77.4425 63.5169 78.0206 62.7157C85.2212 52.7362 89.3489 43.4464 90.5355 34.5419C90.8195 32.4425 90.7891 27.8078 90.4848 25.8707C89.4504 19.2278 86.5092 13.4166 81.844 8.77166C77.1383 4.09631 71.3067 1.21605 64.5016 0.201866C63.2238 0.0193176 59.0758 -0.0719604 57.7675 0.0700302ZM64.4306 4.05574C67.4934 4.55269 70.1709 5.43502 72.7164 6.76359C80.4242 10.8102 85.6979 18.3962 86.7729 26.9863C86.9656 28.538 86.9859 31.6312 86.8236 33.2742C85.6979 44.2171 79.055 56.6205 67.1486 69.9874C65.82 71.4782 60.6579 76.7316 60.526 76.7316C60.3841 76.7316 58.5281 74.9061 58.305 74.541C58.1934 74.3584 57.95 74.115 57.7675 74.0035C57.4024 73.7804 54.7047 70.9103 52.7372 68.6689C47.1491 62.2999 42.21 55.1702 39.1675 49.0953C33.9242 38.5986 32.7275 29.1566 35.6483 21.2055C36.5509 18.7512 38.2547 15.7391 39.918 13.6498C40.7699 12.585 42.7881 10.5566 43.853 9.69456C45.2526 8.56882 47.1592 7.36195 48.934 6.48976C51.9461 5.01921 54.3801 4.31943 58.1123 3.87319C58.9744 3.77177 63.4773 3.90361 64.4306 4.05574ZM48.2748 69.3991C48.8529 70.0989 49.938 71.3565 50.6885 72.178L52.0374 73.6891H46.2262C40.8105 73.6891 40.3845 73.7094 40.0093 73.8818C39.492 74.115 39.0864 74.5917 38.9342 75.1394C38.8734 75.3726 38.2345 77.614 37.5042 80.1291C36.3684 84.0844 36.196 84.774 36.2264 85.271C36.2771 85.9708 36.6422 86.5083 37.2811 86.7821C37.6969 86.9748 38.3562 86.9748 60.668 86.9545L83.629 86.9241L83.9941 86.6807C84.4809 86.346 84.775 85.8896 84.846 85.3521C84.8967 84.9667 84.6837 84.1351 83.4667 79.8756C82.5945 76.8533 81.9353 74.7134 81.7933 74.4903C81.6513 74.2773 81.3674 74.0238 81.1138 73.9021C80.6676 73.6891 80.5662 73.6891 74.8564 73.6891H69.035L69.3798 73.2936C69.5725 73.0704 70.3433 72.1881 71.0938 71.3362C71.8544 70.4843 72.7874 69.4093 73.1728 68.9427L73.8625 68.1111H80.7792H87.6958L90.6674 74.3483C92.3002 77.7762 93.7403 80.6666 93.8519 80.7782C94.4097 81.2954 94.3285 81.2954 101.438 81.2954L108.06 81.3056L109.308 83.1716L110.545 85.0479H104.46C99.5718 85.0479 98.3041 85.0783 98.0404 85.1899C97.3204 85.484 96.7626 86.4981 96.8944 87.2385C96.935 87.4109 97.4928 88.6685 98.1317 90.0173C98.7808 91.356 99.2879 92.4818 99.2676 92.5122C99.2372 92.5325 81.7832 92.5426 60.4652 92.5325L21.7135 92.5021L26.0339 83.4759C30.0703 75.0582 30.3644 74.4092 30.405 73.8108C30.4354 73.2733 30.405 73.111 30.192 72.7459C30.0399 72.4924 29.7559 72.2185 29.4922 72.0664L29.0562 71.8129L24.2185 71.7824L19.3708 71.752L20.5878 69.9366L21.8048 68.1111L34.5124 68.1213H47.2099L48.2748 69.3991ZM102.351 72.7763L105.474 77.4415H100.931H96.3873L94.2271 72.9183C93.0405 70.4234 92.0466 68.3241 92.0162 68.2531C91.9757 68.1314 92.5537 68.1111 95.5963 68.1111L99.2372 68.1213L102.351 72.7763ZM25.4558 75.6972C25.4558 75.7377 23.6607 79.5409 21.4701 84.1351L17.4743 92.5021L11.521 92.5325C7.97143 92.5426 5.57797 92.5122 5.59825 92.4615C5.6084 92.4108 8.14384 88.5975 11.2066 83.9931L16.7846 75.6262L21.1253 75.616C23.5086 75.616 25.4558 75.6465 25.4558 75.6972ZM57.5342 79.2164C59.3293 80.9405 59.8263 81.2954 60.4753 81.2954C61.2765 81.2954 61.4794 81.1534 63.812 78.9527L65.2927 77.543L72.0572 77.5632L78.8218 77.5937L79.5621 80.1291C79.9678 81.5185 80.3228 82.766 80.3633 82.8877L80.4343 83.1209H60.5565C49.6135 83.1209 40.6685 83.0905 40.6685 83.0499C40.6685 83.0094 41.0133 81.7518 41.4392 80.261L42.2202 77.543H49.005H55.8L57.5342 79.2164ZM114.146 90.4331C114.703 91.2749 115.241 92.0964 115.342 92.2587L115.535 92.5528H109.561H103.588L102.716 90.7273L101.844 88.9017H107.482H113.131L114.146 90.4331ZM117.239 98.2829V100.159H60.5463H3.85387V98.2829V96.4066H60.5463H117.239V98.2829Z" fill="#7C7C7C"/>
<path d="M50.4684 18.9752C50.2554 19.0462 49.941 19.2389 49.7788 19.4012C49.2108 19.9286 49.1905 20.0604 49.1905 23.4275V26.5207L47.6287 27.6363C46.7667 28.255 45.9553 28.8939 45.8032 29.0663C45.1744 29.8269 45.2555 30.9121 46.0162 31.622C46.7464 32.3218 47.7605 32.2812 48.7443 31.5409C48.9167 31.409 49.0891 31.2975 49.1195 31.2975C49.1601 31.2975 49.1905 33.5895 49.1905 36.3988V41.5001L48.7443 41.6218C47.6084 41.9159 46.9898 43.1126 47.4157 44.1572C47.6287 44.6542 47.9431 44.9787 48.4299 45.2018C48.8153 45.3844 49.3731 45.3945 60.458 45.3945C68.9771 45.3945 72.1718 45.3641 72.4253 45.2728C72.9628 45.0903 73.3178 44.8063 73.5409 44.3499C74.119 43.2343 73.4598 41.8449 72.2428 41.5914L71.9081 41.5204V36.4089C71.9081 32.3421 71.9385 31.2975 72.0399 31.3583C72.1008 31.3989 72.3543 31.5713 72.5977 31.7437C73.3786 32.2914 74.5754 32.2001 75.1737 31.5307C75.9039 30.7295 75.762 29.3807 74.8898 28.7012C74.6666 28.5288 71.5328 26.2773 67.9021 23.6912C63.1253 20.2835 61.2085 18.9651 60.9043 18.8941C60.6406 18.8333 60.3566 18.8434 60.0929 18.9144C59.8394 18.9752 58.4601 19.8981 56.3405 21.4194L52.9937 23.8129L52.943 21.9468C52.9126 20.7703 52.8517 20.0097 52.7706 19.8779C52.5576 19.5128 51.9491 19.0462 51.5536 18.9347C51.0668 18.7927 50.9552 18.8028 50.4684 18.9752ZM64.3829 25.8716L68.0542 28.4882V35.0195V41.5407H65.2754H62.4864L62.456 39.4312C62.4255 37.0479 62.3545 36.774 61.6345 36.2568C60.884 35.7193 59.9814 35.77 59.2613 36.3988C58.6629 36.9262 58.6224 37.1391 58.6224 39.4616V41.5407H55.7827H52.943L52.9633 35.0195L52.9937 28.5085L56.6954 25.8514C58.7339 24.3808 60.4682 23.2044 60.5595 23.2246C60.6406 23.2449 62.3647 24.4315 64.3829 25.8716Z" fill="#7C7C7C"/>
</svg>
