<svg width="111" height="104" viewBox="0 0 111 104" fill="none" xmlns="http://www.w3.org/2000/svg">
<path d="M11.6167 0.0537643C8.68 0.360443 5.8734 1.68939 3.80098 3.76181C2.03525 5.52755 0.845696 7.70219 0.260214 10.23L0.0464668 11.1593L0.0278801 37.6361L0 64.1129L0.195161 64.5218C0.724882 65.6184 2.36051 65.7021 3.06681 64.6705L3.29914 64.3266L3.34561 37.887L3.39208 11.4381L3.59653 10.7225C4.26565 8.38991 5.4552 6.60558 7.24882 5.23946C8.00158 4.66327 9.48852 3.92909 10.4086 3.68746C13.8192 2.76743 17.4529 3.80828 19.8413 6.39183C21.2911 7.96241 22.1275 9.76532 22.3877 11.9028C22.4621 12.4976 22.4899 22.7574 22.4899 47.58V82.4208L21.7186 81.6866C20.0644 80.0882 18.2615 79.1124 15.9009 78.5083C14.9716 78.276 14.795 78.2574 12.8713 78.2667C10.8825 78.2667 10.7989 78.276 9.73015 78.5548C7.49974 79.1496 5.80835 80.0789 4.01473 81.7052L3.34561 82.3093V76.1478V69.977L3.14116 69.5681C2.47203 68.2484 0.501841 68.4157 0.0929336 69.8283C0.0185867 70.0699 0 73.555 0.0185867 81.5565C0.0557602 94.2048 0.00929336 93.2104 0.697002 95.2828C1.36612 97.2995 2.49062 99.0466 4.08908 100.543C5.8734 102.225 8.14098 103.368 10.5944 103.833C11.4401 103.991 13.6891 104 58.827 104H106.177L106.874 103.749C107.933 103.377 108.435 103.061 109.243 102.244C110.098 101.379 110.507 100.692 110.777 99.6228C110.963 98.9165 110.963 98.4612 110.963 65.0422C110.963 36.809 110.944 31.1308 110.833 30.8798C110.266 29.5137 108.11 29.6345 107.719 31.0471C107.645 31.3166 107.617 40.9074 107.617 64.9772C107.617 95.0784 107.599 98.5727 107.468 98.9537C107.283 99.5206 106.771 100.097 106.186 100.403L105.712 100.654L59.2452 100.682C27.8615 100.701 12.5089 100.682 11.942 100.617C10.3342 100.431 9.00527 99.9574 7.72278 99.1117C2.49062 95.6639 1.85867 88.415 6.42171 84.1308C7.75066 82.8762 9.33983 82.0584 11.1427 81.6959C12.3044 81.4543 14.3489 81.5379 15.427 81.8632C16.505 82.1885 17.1927 82.5045 18.1221 83.1085C19.135 83.7684 20.1852 84.8278 20.8543 85.8501C21.8022 87.3091 22.239 88.6009 22.4249 90.5618C22.555 91.8815 22.6479 92.1045 23.2148 92.4855C24.107 93.0989 25.4359 92.597 25.7333 91.5469C25.8077 91.2774 25.8355 80.7666 25.8355 53.7415V16.3171H65.7319H105.619L106.084 16.5402C106.651 16.8097 107.171 17.3394 107.422 17.897C107.599 18.2966 107.617 18.5011 107.617 21.7073C107.617 24.802 107.636 25.1273 107.794 25.4711C108.1 26.1495 108.593 26.4469 109.364 26.4469C109.94 26.4469 110.479 26.1309 110.749 25.657C110.953 25.2852 110.963 25.2481 110.963 21.6608C110.963 17.5717 110.953 17.4695 110.294 16.1406C109.587 14.6815 108.138 13.5384 106.455 13.1109C105.972 12.9901 101.27 12.9715 65.8806 12.9715H25.8541L25.7984 12.3396C25.5753 9.70027 24.9062 7.66502 23.5958 5.68554C22.9825 4.7562 21.5606 3.26926 20.5383 2.50721C19.609 1.80091 17.8433 0.908752 16.728 0.574188C15.1017 0.0909348 13.178 -0.104225 11.6167 0.0537643Z" fill="#7C7C7C"/>
<path d="M71.4179 27.3639C71.2134 27.4568 66.0091 31.0255 59.8476 35.2911C49.8666 42.2147 48.6212 43.0975 48.3796 43.4878C47.7198 44.5473 48.1008 45.9692 49.1974 46.5361C49.5227 46.7126 49.7736 46.7498 50.8516 46.7777L52.1341 46.8149L52.1527 59.8442L52.1806 72.8642L52.4222 73.3846C52.7475 74.063 53.2122 74.5741 53.8255 74.918L54.3181 75.1875H72.2543H90.1904L90.6272 74.9645C91.222 74.6764 91.7982 74.0816 92.0863 73.4682L92.3279 72.9571L92.3558 59.872L92.3744 46.7963H93.4524C94.7628 46.7963 95.2275 46.6848 95.7293 46.2573C96.2311 45.8205 96.4635 45.3186 96.4635 44.6123C96.4635 43.9711 96.2497 43.4321 95.8501 43.0696C95.3576 42.6236 73.3788 27.4382 73.0442 27.3174C72.5795 27.1408 71.8454 27.1594 71.4179 27.3639ZM81.3803 37.1033L90.4692 43.4042L81.3896 43.4321C76.3991 43.4414 68.2116 43.4414 63.1932 43.4321L54.0764 43.4042L63.1654 37.1126C68.1652 33.6462 72.2636 30.8117 72.2728 30.8117C72.2914 30.8117 76.3898 33.6462 81.3803 37.1033ZM89.0288 59.3423V71.8884H84.2892H79.5495L79.531 64.5652L79.5031 57.2513L79.1964 56.6287C78.8433 55.9038 78.3228 55.4298 77.5979 55.151C77.1612 54.9837 76.8452 54.9744 72.2264 54.9744H67.3288L66.7712 55.2439C66.0928 55.5599 65.4143 56.2755 65.2006 56.8982C65.0705 57.2792 65.0519 58.1992 65.0519 64.6117V71.8884H60.2658H55.4797V59.3423V46.7963H72.2543H89.0288V59.3423ZM76.2039 65.1042V71.8884H72.3007H68.3975V65.1042V58.3201H72.3007H76.2039V65.1042Z" fill="#7C7C7C"/>
<path d="M35.2217 31.29C34.1622 31.9034 34.1158 33.4554 35.138 34.1338L35.5283 34.394L38.4836 34.4219C41.6527 34.4498 41.9872 34.4219 42.4705 34.013C43.2325 33.3717 43.2697 32.1636 42.5448 31.4945C42.1452 31.1135 41.9222 31.0949 38.6788 31.0949C35.6956 31.0949 35.5283 31.1042 35.2217 31.29Z" fill="#7C7C7C"/>
<path d="M35.4685 44.7917C35.0039 44.959 34.7622 45.182 34.5578 45.6374C34.3533 46.0835 34.3347 46.6039 34.5113 47.0128C34.6693 47.4124 35.2362 47.8957 35.6079 47.9607C35.7752 47.9886 37.2993 48.0072 38.9907 47.9886L42.0668 47.9607L42.4014 47.7005C42.8568 47.3567 43.0519 46.957 43.0519 46.3716C43.0519 45.7861 42.7824 45.2657 42.3084 44.9404L41.9739 44.7081L38.8978 44.6895C36.4629 44.6709 35.7473 44.6895 35.4685 44.7917Z" fill="#7C7C7C"/>
<path d="M35.3611 58.4525C33.9764 59.0845 34.1158 61.1476 35.5842 61.5844C35.7979 61.6494 36.9875 61.668 38.9391 61.6494C41.8665 61.6215 41.9687 61.6122 42.2847 61.4171C42.7493 61.129 43.056 60.5528 43.056 59.958C43.056 59.3725 42.8609 58.9729 42.4055 58.6291L42.0709 58.3689L38.8554 58.3503C36.309 58.3317 35.5842 58.3503 35.3611 58.4525Z" fill="#7C7C7C"/>
<path d="M35.6351 71.9856C34.2504 72.3109 33.953 74.2904 35.1705 75.0059L35.5701 75.2383H38.6927C40.6721 75.2383 41.9082 75.2011 42.0754 75.1361C42.6795 74.913 43.0605 74.3182 43.0605 73.6119C43.0605 72.8313 42.5773 72.1901 41.8431 71.9856C41.4528 71.8834 36.0905 71.8741 35.6351 71.9856Z" fill="#7C7C7C"/>
<path d="M35.322 85.7201C34.0767 86.3521 34.0953 88.155 35.3499 88.7219C35.7217 88.8891 36.7532 88.8984 66.5756 88.8984H97.4296L97.8292 88.7033C98.9723 88.1457 99.0002 86.3706 97.8664 85.7666L97.4575 85.5528H66.5477C37.3015 85.5528 35.6194 85.5621 35.322 85.7201Z" fill="#7C7C7C"/>
</svg>
