<svg width="105" height="104" viewBox="0 0 105 104" fill="none" xmlns="http://www.w3.org/2000/svg">
<path d="M51.0813 0.225342C50.8733 0.346672 50.6133 0.606674 50.492 0.814674L50.2753 1.18734V4.05601V6.93334H48.9927C46.956 6.93334 46.0373 7.27134 44.8587 8.45C43.7667 9.54201 43.342 10.582 43.342 12.1767V13.0607L42.3713 13.2947C34.502 15.2273 27.3693 19.708 22.5333 25.74C18.5813 30.68 16.1373 36.738 15.7127 42.6313L15.652 43.5327L14.9587 43.888C13.6933 44.5207 12.6273 45.838 12.272 47.1987C12.1593 47.6233 12.142 48.4727 12.142 52.4507V57.1913L7.306 57.2173L2.47867 57.2433L1.95867 57.4947C1.29133 57.824 0.632667 58.4827 0.303333 59.15L0.052 59.67L0.026 64.8613C0.00866667 68.432 0.0346667 70.2087 0.0953333 70.5207C0.381333 71.8727 1.534 73.3373 2.808 73.97L3.47533 74.2993V83.9367V93.574L2.94667 93.626C1.898 93.7213 0.814667 94.51 0.303333 95.55L0.052 96.07L0.026 99.4327L0 102.804L0.225333 103.185C0.355333 103.411 0.598 103.653 0.823333 103.783L1.196 104H52.0087H102.821L103.194 103.783C103.419 103.653 103.662 103.411 103.792 103.185L104.017 102.804L103.991 99.4327L103.965 96.07L103.714 95.55C103.203 94.51 102.119 93.7213 101.071 93.626L100.542 93.574V83.9367V74.2993L101.209 73.97C102.457 73.3547 103.515 72.0373 103.87 70.6507C104 70.1827 104.009 69.472 103.991 64.8873L103.965 59.67L103.714 59.15C103.385 58.4827 102.726 57.824 102.059 57.4947L101.539 57.2433L96.7113 57.2173L91.8753 57.1913V52.468C91.8753 48.4293 91.858 47.658 91.7367 47.1987C91.3813 45.8293 90.3327 44.5293 89.0587 43.888L88.3653 43.5413L88.3393 43.108C88.296 42.172 88.036 40.274 87.7933 39.078C86.1813 31.0093 81.1547 23.686 73.8487 18.7287C70.1913 16.25 65.9187 14.3433 61.6547 13.2947L60.6753 13.0607V12.1767C60.6753 10.5993 60.2247 9.49867 59.1153 8.40667C57.9713 7.27134 57.0353 6.93334 55.0247 6.93334H53.742V4.05601V1.18734L53.5253 0.814674C53.2047 0.268669 52.702 7.62939e-06 52 7.62939e-06C51.558 7.62939e-06 51.3673 0.043335 51.0813 0.225342ZM56.212 10.6253C56.784 10.9373 57.0527 11.3533 57.1567 12.0727C57.2173 12.454 57.2087 12.4887 57.0613 12.4453C56.602 12.3067 53.7593 12.1247 52.0087 12.1247C50.258 12.1247 47.4153 12.3067 46.956 12.4453C46.8087 12.4887 46.8 12.454 46.8607 12.0727C46.9907 11.1627 47.45 10.6513 48.282 10.478C48.4467 10.4433 50.2233 10.4173 52.2253 10.426C55.77 10.4433 55.874 10.452 56.212 10.6253ZM50.2753 29.5533V43.3333H41.6433H33.02L33.072 42.5707C33.514 36.4 34.7707 31.5033 37.102 26.91C39.234 22.7067 42.25 19.3093 45.4653 17.472C46.774 16.7267 48.594 16.0593 49.9287 15.834C50.05 15.8167 50.1713 15.7907 50.2147 15.782C50.2493 15.782 50.2753 21.97 50.2753 29.5533ZM55.1893 16.0853C57.746 16.744 60.008 18.122 62.322 20.4447C65.754 23.8767 68.3193 28.808 69.7753 34.71C70.3473 37.0413 70.7373 39.6327 70.9453 42.5707L70.9973 43.3333H62.374H53.742V29.5533V15.7647L54.0713 15.8253C54.2447 15.86 54.7473 15.9727 55.1893 16.0853ZM66.326 18.5987C66.6207 18.72 67.4007 19.0927 68.042 19.4133C76.518 23.6687 82.4807 31.096 84.2833 39.6587C84.5087 40.7333 84.7687 42.5533 84.7687 43.0473V43.3333H79.664H74.5593L74.5073 42.7873C74.4813 42.4927 74.4207 41.6867 74.3687 40.9933C73.918 35.1433 72.1413 28.9987 69.5587 24.3447C68.4407 22.334 66.7853 20.0113 65.494 18.6507L64.8873 18.018L65.3293 18.1913C65.5807 18.2867 66.0227 18.4687 66.326 18.5987ZM38.48 18.7027C36.7207 20.5573 34.7793 23.5127 33.4533 26.312C31.7547 29.9173 30.5153 34.164 29.9173 38.48C29.7613 39.598 29.7093 40.1873 29.51 42.7007L29.458 43.3333H24.3447H19.2227L19.2833 42.614C19.5347 39.4853 20.5573 35.9927 22.1087 32.942C25.3067 26.6327 30.8447 21.5713 37.8387 18.538C38.3673 18.3127 38.844 18.122 38.9133 18.122C38.974 18.1133 38.7833 18.3733 38.48 18.7027ZM87.3687 47.008C88.1487 47.424 88.27 47.684 88.322 49.1227L88.3653 50.2667H51.974H15.5827L15.626 49.2007C15.6867 47.6667 16.0073 47.1293 17.0387 46.878C17.186 46.8433 32.994 46.826 52.182 46.826C86.0773 46.8433 87.074 46.852 87.3687 47.008ZM88.4087 55.4667V57.2H52.0087H15.6087V55.4667V53.7333H52.0087H88.4087V55.4667ZM100.542 62.4V64.1333H52.0087H3.47533V62.4V60.6667H52.0087H100.542V62.4ZM13.858 68.6573C13.806 70.0267 13.624 70.4427 12.8787 70.8413C12.5407 71.0233 12.454 71.0233 8.67533 71.0233C4.89667 71.0233 4.81 71.0233 4.472 70.8413C3.72667 70.434 3.536 70.0267 3.49267 68.6573L3.458 67.6H8.67533H13.9013L13.858 68.6573ZM20.8087 68.8827C20.8087 69.7493 20.852 70.33 20.9387 70.668C21.294 72.0287 22.3687 73.3547 23.608 73.97L24.2753 74.2993V83.954V93.6H19.0753H13.8753V83.954V74.2993L14.5427 73.97C15.7907 73.3547 16.848 72.0373 17.2033 70.668C17.2987 70.2953 17.342 69.7407 17.342 68.8653V67.6H19.0753H20.8087V68.8827ZM34.658 68.6573C34.606 70.0267 34.424 70.4427 33.6787 70.8413C33.3407 71.0233 33.254 71.0233 29.4753 71.0233C25.6967 71.0233 25.61 71.0233 25.272 70.8413C24.5267 70.4427 24.3447 70.0267 24.2927 68.6573L24.2493 67.6H29.4753H34.7013L34.658 68.6573ZM43.342 68.8653C43.342 69.7407 43.3853 70.2953 43.4807 70.668C43.836 72.0373 44.8933 73.3547 46.1413 73.97L46.8087 74.2993V83.954V93.6H40.742H34.6753V83.954V74.2993L35.3427 73.97C36.5907 73.3547 37.648 72.0373 38.0033 70.668C38.0987 70.2953 38.142 69.7407 38.142 68.8653V67.6H40.742H43.342V68.8653ZM57.1913 68.6573C57.1393 70.0267 56.9573 70.4427 56.212 70.8413C55.874 71.0233 55.7873 71.0233 52.0087 71.0233C48.23 71.0233 48.1433 71.0233 47.8053 70.8413C47.06 70.434 46.8693 70.0267 46.826 68.6573L46.7913 67.6H52.0087H57.2347L57.1913 68.6573ZM65.8753 68.8653C65.8753 69.7407 65.9187 70.2953 66.014 70.668C66.3693 72.0373 67.4267 73.3547 68.6747 73.97L69.342 74.2993V83.954V93.6H63.2753H57.2087V83.954V74.2993L57.876 73.97C59.124 73.3547 60.1813 72.0373 60.5367 70.668C60.632 70.2953 60.6753 69.7407 60.6753 68.8653V67.6H63.2753H65.8753V68.8653ZM79.7247 68.6573C79.6727 70.0267 79.4907 70.4427 78.7453 70.8413C78.4073 71.0233 78.3207 71.0233 74.542 71.0233C70.7633 71.0233 70.6767 71.0233 70.3387 70.8413C69.5933 70.4427 69.4113 70.0267 69.3593 68.6573L69.316 67.6H74.542H79.768L79.7247 68.6573ZM86.6753 68.8827C86.6753 69.7493 86.7187 70.33 86.8053 70.668C87.1607 72.0287 88.2353 73.3547 89.4747 73.97L90.142 74.2993V83.954V93.6H84.942H79.742V83.954V74.2993L80.4093 73.97C81.6573 73.3547 82.7147 72.0373 83.07 70.668C83.1653 70.2953 83.2087 69.7407 83.2087 68.8653V67.6H84.942H86.6753V68.8827ZM100.525 68.6573C100.473 70.0267 100.291 70.4427 99.5453 70.8413C99.2073 71.0233 99.1207 71.0233 95.342 71.0233C91.5633 71.0233 91.4767 71.0233 91.1387 70.8413C90.3933 70.4427 90.2113 70.0267 90.1593 68.6573L90.116 67.6H95.342H100.568L100.525 68.6573ZM10.4087 84.0667V93.6H8.67533H6.942V84.0667V74.5333H8.67533H10.4087V84.0667ZM31.2087 84.0667V93.6H29.4753H27.742V84.0667V74.5333H29.4753H31.2087V84.0667ZM53.742 84.0667V93.6H52.0087H50.2753V84.0667V74.5333H52.0087H53.742V84.0667ZM76.2753 84.0667V93.6H74.542H72.8087V84.0667V74.5333H74.542H76.2753V84.0667ZM97.0753 84.0667V93.6H95.342H93.6087V84.0667V74.5333H95.342H97.0753V84.0667ZM100.542 98.8V100.533H52.0087H3.47533V98.8V97.0667H52.0087H100.542V98.8Z" fill="#7C7C7C"/>
</svg>
