<svg width="94" height="104" viewBox="0 0 94 104" fill="none" xmlns="http://www.w3.org/2000/svg">
<path d="M22.2233 0.221169C21.712 0.358345 20.839 0.70752 20.2903 0.994347C19.3052 1.50564 18.931 1.86729 10.688 10.0729C1.88373 18.8398 1.32255 19.4384 0.686554 21.0097C-0.0367412 22.8179 0.000670547 20.6854 0.000670547 55.9897C0.000670547 91.3813 -0.0492118 89.0119 0.711495 90.4086C1.17291 91.2441 2.22044 92.1919 3.20562 92.6658L4.05362 93.0648L9.20398 93.1022L14.3419 93.1396V96.0952C14.3419 98.3274 14.3917 99.2378 14.5289 99.774C15.0652 101.844 16.5492 103.303 18.5943 103.79C19.7666 104.064 87.6441 104.076 88.9535 103.79C91.0735 103.341 92.7196 101.682 93.1561 99.562C93.2434 99.1255 93.2683 85.7695 93.2558 56.9001L93.2184 14.8741L92.9441 14.1882C92.3704 12.804 91.1733 11.6068 89.789 11.0332C89.1281 10.7713 88.9535 10.7588 84.0276 10.7214L78.9396 10.684V7.72847C78.9396 4.49859 78.8398 3.82517 78.2288 2.69035C77.7674 1.85482 76.7198 0.907051 75.7346 0.433167L74.8867 0.034111L49.0101 0.00917053C23.8195 -0.01577 23.1087 -0.00330353 22.2233 0.221169ZM74.5873 3.92493C75.3855 4.59835 75.3231 1.77999 75.3231 40.1146V75.157L74.8492 75.2817C74.5873 75.3566 74.2132 75.581 74.0137 75.793C73.6645 76.1547 73.6396 76.2544 73.5772 77.514C73.4525 79.9333 73.5274 81.093 73.8142 81.5794C74.0761 81.9909 74.7245 82.4024 75.1236 82.4024C75.2982 82.4024 75.3231 82.7267 75.3231 85.2083C75.3231 88.3135 75.2732 88.6003 74.5873 89.174L74.1758 89.5107L39.4078 89.4858L4.63974 89.4483L4.30303 89.1366C3.66703 88.5629 3.61715 88.2512 3.61715 85.2333V82.4274L3.99126 82.365C4.19079 82.3152 4.50256 82.1904 4.67715 82.0782C5.28821 81.6792 5.3755 81.33 5.40044 78.8733C5.42538 76.1671 5.35056 75.9302 4.27809 75.4189L3.61715 75.1071V50.0662V25.0377H12.0847C20.1781 25.0377 20.5896 25.0252 21.3503 24.7883C22.6972 24.3767 23.8943 23.3541 24.5553 22.0821C25.1663 20.8725 25.1913 20.5607 25.1913 11.7814V3.58823H49.6836H74.1758L74.5873 3.92493ZM21.3005 20.4111C20.7642 21.4836 21.288 21.4212 12.3965 21.3963L4.55244 21.3588L13.0325 12.8788L21.5125 4.39882L21.5499 12.1306L21.5748 19.8499L21.3005 20.4111ZM88.8038 14.5998C89.0408 14.7494 89.3276 15.0737 89.4398 15.3106C89.6518 15.7221 89.6643 17.9793 89.6643 57.2742C89.6643 97.8036 89.6518 98.8138 89.4274 99.3251C89.2777 99.6493 89.0283 99.9361 88.7664 100.073C88.3674 100.285 86.9208 100.298 53.961 100.335C20.0035 100.36 19.5546 100.36 19.0059 100.123C18.5694 99.9236 18.3948 99.7491 18.2078 99.3375C17.9833 98.8512 17.9583 98.502 17.9583 95.958V93.1272H46.2043C74.4377 93.1272 74.4626 93.1272 75.2234 92.8653C76.9942 92.2667 78.2786 90.8825 78.7525 89.0493C78.9146 88.4257 78.9396 83.7742 78.9396 51.3257V14.313H83.666C88.3549 14.313 88.3798 14.313 88.8038 14.5998Z" fill="#7C7C7C"/>
<path d="M18.9679 32.4196C17.6959 33.0805 17.6211 34.8763 18.8432 35.5372C19.2422 35.7492 19.9157 35.7617 32.3987 35.7617H45.5303L46.0416 35.2878C46.478 34.8763 46.5529 34.7267 46.6028 34.1904C46.6651 33.4172 46.3783 32.8187 45.7672 32.457C45.3432 32.2076 45.1437 32.2076 32.4237 32.1702L19.5166 32.1452L18.9679 32.4196Z" fill="#7C7C7C"/>
<path d="M51.2944 32.3842C50.9952 32.5214 50.6584 32.8082 50.5088 33.0451C50.1846 33.5814 50.1846 34.4543 50.5088 34.9781C50.9827 35.7637 51.0575 35.7762 55.7465 35.7388L59.9865 35.7014L60.4354 35.24C60.8095 34.8783 60.9093 34.6788 60.9467 34.18C61.0091 33.4317 60.7098 32.8082 60.1112 32.459C59.6996 32.2221 59.4378 32.2096 55.7465 32.1722C52.0801 32.1473 51.7808 32.1597 51.2944 32.3842Z" fill="#7C7C7C"/>
<path d="M18.855 39.6248C17.6329 40.3731 17.6828 42.1314 18.9548 42.7674C19.3663 42.9794 20.4263 42.9919 35.8275 42.9919C53.7602 42.9919 52.7501 43.0293 53.3986 42.2686C53.8849 41.6949 53.9473 41.0964 53.5981 40.398C53.0494 39.2881 54.6456 39.3754 35.8524 39.3754C19.5159 39.3754 19.2541 39.3754 18.855 39.6248Z" fill="#7C7C7C"/>
<path d="M18.9652 50.3255C18.3666 50.6248 18.0548 51.0987 17.9925 51.8095C17.9301 52.5203 18.2294 53.0815 18.8529 53.4681C19.2645 53.7175 19.4765 53.7175 37.8083 53.6926L56.3645 53.6552L56.8259 53.1813C57.2749 52.7448 57.2998 52.67 57.2998 51.9218C57.2998 51.2359 57.2499 51.0738 56.988 50.7869C56.3271 50.0636 57.412 50.101 37.6337 50.101C20.5115 50.101 19.3642 50.1135 18.9652 50.3255Z" fill="#7C7C7C"/>
<path d="M18.7405 57.6003C17.6555 58.2861 17.7304 60.057 18.8652 60.668C19.2393 60.88 19.9377 60.8925 28.4676 60.9299C34.5532 60.9549 37.833 60.9174 38.1572 60.8301C38.7433 60.668 39.3419 60.0196 39.4542 59.4085C39.5664 58.785 39.1798 57.9245 38.6311 57.5878C38.232 57.3384 38.0325 57.3384 28.6796 57.3384C19.3266 57.3384 19.1271 57.3509 18.7405 57.6003Z" fill="#7C7C7C"/>
<path d="M12.0188 75.3085C11.4452 75.4706 10.884 76.169 10.7843 76.8299C10.7344 77.1417 10.7219 78.2142 10.7468 79.2368C10.7843 81.3318 10.9214 81.7434 11.7196 82.1798C12.4179 82.5664 13.241 82.4292 13.8146 81.8556L14.276 81.4067L14.3134 78.9375C14.3509 76.1066 14.276 75.8572 13.3033 75.4208C12.7297 75.1464 12.5925 75.1464 12.0188 75.3085Z" fill="#7C7C7C"/>
<path d="M20.8878 75.3451C20.4264 75.5446 20.0149 75.9936 19.8403 76.455C19.7655 76.6545 19.7031 77.7145 19.7031 78.8867C19.7031 80.6825 19.7405 81.0317 19.9401 81.4058C20.5636 82.5905 21.9852 82.7402 22.9455 81.7176C23.2572 81.3933 23.2572 81.3559 23.2947 78.9366C23.3321 76.1058 23.2572 75.8564 22.2845 75.4199C21.6735 75.1331 21.3991 75.1206 20.8878 75.3451Z" fill="#7C7C7C"/>
<path d="M29.7147 75.4176C28.8169 75.879 28.6797 76.3405 28.6797 78.8595C28.6797 81.1666 28.7795 81.5532 29.4653 82.0769C29.9392 82.4261 30.887 82.476 31.3983 82.1642C32.2213 81.6405 32.2962 81.3536 32.2962 78.847C32.2962 76.8892 32.2712 76.54 32.0592 76.1659C31.6103 75.3179 30.5752 74.9936 29.7147 75.4176Z" fill="#7C7C7C"/>
<path d="M39.0234 75.2815C38.4871 75.456 38.0756 75.7927 37.8636 76.2292C37.7015 76.5535 37.6641 77.0897 37.6641 78.8106C37.6641 81.2424 37.7638 81.604 38.537 82.1278C39.3601 82.689 40.5822 82.3273 41.0561 81.392C41.2431 81.0429 41.2805 80.6189 41.2805 78.7857C41.2805 76.8902 41.2556 76.541 41.0436 76.1669C40.6819 75.4685 39.7467 75.0695 39.0234 75.2815Z" fill="#7C7C7C"/>
<path d="M47.6507 75.4437C46.7279 75.9176 46.6406 76.2169 46.6406 78.8482C46.6406 81.3547 46.7154 81.6416 47.5385 82.1653C48.0498 82.4771 48.9851 82.4272 49.4839 82.0656C50.1947 81.5543 50.2696 81.1926 50.2322 78.6985C50.1947 76.6409 50.1698 76.4039 49.9329 76.0922C49.2844 75.2067 48.5112 74.9947 47.6507 75.4437Z" fill="#7C7C7C"/>
<path d="M56.658 75.409C55.6853 75.858 55.6105 76.1074 55.6479 78.9382C55.6853 81.3575 55.6853 81.3949 55.9971 81.7192C56.4834 82.2429 56.9698 82.4425 57.5808 82.3676C58.3041 82.2928 58.7157 81.9935 59.015 81.3326C59.227 80.8337 59.2519 80.5469 59.2145 78.6015C59.1771 76.6436 59.1521 76.4067 58.9152 76.0949C58.3041 75.2594 57.506 75.0224 56.658 75.409Z" fill="#7C7C7C"/>
<path d="M65.6288 75.4064C64.681 75.8428 64.5938 76.1172 64.5938 78.8358C64.5938 80.9807 64.6187 81.2301 64.8432 81.5918C65.3545 82.4148 66.614 82.6393 67.437 82.0407C68.1105 81.5668 68.2352 80.9682 68.1853 78.5614C68.1479 76.6409 68.1229 76.404 67.886 76.0922C67.2749 75.2567 66.4768 75.0198 65.6288 75.4064Z" fill="#7C7C7C"/>
</svg>
