<svg width="105" height="105" viewBox="0 0 105 105" fill="none" xmlns="http://www.w3.org/2000/svg">
<path d="M42.3445 0.275223C41.9182 0.439194 41.164 0.865509 40.6721 1.22623C40.1802 1.58696 39.3275 1.8821 38.8028 1.8821C36.1138 1.8821 31.1948 4.11206 28.2761 6.66994C25.128 9.42459 22.3733 13.9829 21.1928 18.4428C20.8976 19.525 20.5697 21.9189 20.4385 23.7881L20.2418 27.1658L19.1924 27.5922C17.4543 28.3464 17.0608 29.199 17.0608 32.4128C17.0608 35.4298 17.5855 36.6759 19.0284 37.1351C19.6187 37.3318 19.5531 37.4302 18.5693 38.2828C17.1592 39.529 16.6017 41.5294 16.7984 44.448C17.0608 47.8257 18.143 50.2524 20.3401 52.384C21.4551 53.4662 22.4061 54.7779 22.7668 55.6633C23.062 56.4832 24.0458 58.4836 24.9312 60.1561L26.5381 63.173L19.9138 67.0099C16.2737 69.1087 12.2074 71.5026 10.8956 72.2896C5.18956 75.7985 1.74625 80.8159 0.467307 87.4074C-0.155769 90.7195 -0.155769 100.098 0.467307 101.607C1.0248 102.951 2.13977 104.034 3.38592 104.493C4.04179 104.755 16.7329 104.854 44.181 104.854C80.2538 104.854 84.1234 104.788 85.14 104.329C86.7796 103.542 87.6979 102.066 87.8946 99.9345L88.0586 98.1309L94.9452 97.9669C102.717 97.7701 103.111 97.6718 104.357 95.245C104.947 94.0317 105.013 93.4742 104.882 88.6536C104.718 82.5868 104.16 80.3568 102.061 77.1103C99.9954 73.9293 98.4541 72.6831 88.8784 66.4852L79.7619 60.5496L81.172 58.254C81.959 57.0079 82.91 55.1387 83.3363 54.0893C83.7627 53.0727 84.5825 51.8265 85.2056 51.269C86.878 49.7933 87.6651 47.9897 87.829 45.1039C87.9602 42.9395 87.8618 42.4148 87.2716 41.3654C86.5829 40.2176 86.5829 40.1193 87.1076 39.5618C87.8618 38.7419 88.1242 35.6593 87.5667 34.3476C87.3371 33.7901 86.878 33.1343 86.5173 32.9047C86.091 32.6096 85.7303 31.5602 85.3039 29.2318C84.4841 25.0015 83.5987 22.6731 81.8606 20.312C79.5651 17.1966 76.3513 15.0651 72.7768 14.3108C71.793 14.1141 70.4485 13.6549 69.7926 13.327C68.3169 12.5728 67.3659 12.54 66.1198 13.1958C65.5951 13.491 65.136 13.6549 65.1032 13.6222C65.0704 13.5566 64.6769 12.8679 64.2178 12.0481C61.2336 6.83392 55.921 3.02988 50.3461 2.04607C48.9688 1.81651 47.5915 1.423 47.2963 1.12785C46.0502 0.0784607 43.8202 -0.315056 42.3445 0.275223ZM45.6239 4.21043C45.7878 4.57117 46.1486 7.58817 46.4109 10.9659C46.8044 16.0817 46.9684 17.1966 47.4275 17.5246C48.2474 18.1149 49.0016 18.0493 49.6575 17.3278C50.1822 16.7375 50.215 16.3112 49.887 12.1465C49.6903 9.62135 49.5263 7.06347 49.5263 6.4076V5.22704L51.1332 5.65335C55.4947 6.80112 59.6923 10.4412 61.955 14.9995C63.5619 18.2788 64.2833 21.3614 64.2833 25.0671V27.7561L62.4141 27.9529C58.5445 28.412 57.7575 28.8711 58.1838 30.5108C58.4789 31.7241 59.2659 31.8225 63.4307 31.2322C68.2514 30.5764 67.8906 30.478 67.8906 32.38C67.8906 33.2654 67.8578 34.0197 67.825 34.0197C67.7595 34.0197 65.4639 34.3148 62.6765 34.6755C50.8052 36.2168 39.098 36.348 28.0466 35.0035C19.6515 33.9869 20.3401 34.2492 20.3401 32.3144V30.642L21.7503 30.8387C30.1126 32.0521 31.162 31.9537 31.162 30.0517C31.162 28.8383 30.6373 28.6088 27.0956 28.1497C25.4559 27.9201 24.013 27.6578 23.849 27.5594C23.4227 27.297 23.849 21.7221 24.4721 19.3282C26.1446 12.7695 31.6867 6.80112 37.3599 5.52217C38.3109 5.32542 38.7045 5.32542 38.7045 5.62055C38.7045 5.81731 38.4749 8.8671 38.2126 12.376C37.5567 21.1319 37.5239 22.8043 37.9502 23.2306C38.5077 23.7881 40.0818 23.6897 40.5081 23.0995C40.7377 22.8043 41.1312 19.0331 41.4591 13.9501C41.787 9.19504 42.1806 4.99748 42.3445 4.57117C42.902 3.19384 44.9352 2.96429 45.6239 4.21043ZM68.8744 16.8031C69.104 17.0655 69.6943 17.295 70.1862 17.295C72.3177 17.295 75.3675 18.574 77.204 20.2792C79.8602 22.7059 80.9424 24.8047 81.8606 29.4286C82.6805 33.5934 83.3691 35.6593 83.9266 35.6593C84.1234 35.6593 84.2873 36.0201 84.2873 36.4464C84.2873 37.2006 84.1562 37.2334 80.9424 37.5942C79.0732 37.7909 77.04 38.0533 76.4169 38.1189C75.3675 38.25 74.1214 39.2338 74.1214 39.9553C74.1214 40.1193 74.4165 40.5456 74.81 40.9391C75.4003 41.5294 75.7611 41.595 77.204 41.431C83.1396 40.7751 82.9428 40.7423 83.2708 41.6278C83.4347 42.0541 83.7954 42.6116 84.0906 42.8411C85.3039 43.8577 84.189 48.4488 82.5821 49.0719C81.5655 49.4654 81.172 49.9573 80.6801 51.5642C79.4667 55.4338 75.4331 60.9103 72.6785 62.386C70.6781 63.4682 70.7109 65.567 72.7113 65.7637C73.4327 65.8293 74.1214 65.5342 75.4659 64.5176C76.4169 63.7961 77.4335 63.2714 77.6631 63.3698C77.9254 63.4682 82.2214 66.19 87.2716 69.4694C97.0768 75.8313 98.3557 76.9135 100.028 80.4224C101.176 82.8491 101.668 85.6038 101.668 89.9325C101.668 94.9171 102.029 94.6875 94.2566 94.6875H87.8946V93.0807C87.8946 91.7361 87.993 91.4082 88.5833 91.2442C89.4687 90.9491 89.8622 89.8013 89.8622 87.6042C89.8622 85.4726 89.0096 84.3248 87.6979 84.6528C87.1404 84.8167 86.9108 84.7183 86.9108 84.3904C86.9108 83.2754 84.1562 78.5532 82.2869 76.52C79.8274 73.8637 78.5813 72.9783 69.5303 67.7969C65.6607 65.567 62.2829 63.5666 62.0206 63.337C61.6599 63.0091 61.7583 62.6156 62.8076 60.9431C63.4635 59.8281 64.4801 57.7293 65.0704 56.2864C65.8574 54.3516 66.3821 53.499 67.1036 53.0727C67.6283 52.7447 68.4809 51.8921 68.9728 51.1706C72.0226 46.7435 72.2194 40.0209 69.3335 38.1189L68.3169 37.4302L69.268 37.0039C70.6453 36.3808 71.17 35.1019 71.17 32.3144C71.17 29.4286 70.4485 27.9529 68.8416 27.5594L67.825 27.2642L67.6939 24.3784C67.6283 22.8043 67.3331 20.5416 67.0708 19.361C66.6773 17.7541 66.6773 17.0983 66.9396 16.7703C67.4315 16.18 68.3497 16.18 68.8744 16.8031ZM31.6539 38.7747C40.2785 39.6274 54.8716 39.2994 62.8732 38.0861L64.2833 37.8893V39.0043C64.2833 40.48 65.136 41.267 66.5789 41.1686C67.5955 41.0703 67.6939 41.1686 67.8906 42.1197C68.1858 43.4314 67.6939 46.5468 67.0052 47.9241C66.2837 49.367 65.5951 50.0885 64.4145 50.5804C63.5291 50.9411 63.2668 51.3674 62.6765 53.1055C60.3153 60.1561 55.0356 67.0099 50.051 69.4366C45.7878 71.5354 42.2789 71.5354 38.1142 69.4366C32.9984 66.8787 28.3745 61.0087 25.5871 53.5318C24.8656 51.5314 24.5705 51.1379 23.4555 50.5476C21.2584 49.3998 19.5203 44.8743 20.1762 41.8901C20.3729 40.9719 20.5041 40.8735 21.3239 41.0703C22.7341 41.3982 23.5867 40.7751 23.8162 39.2338L24.0458 37.8893L25.3903 38.0861C26.1446 38.2172 28.9648 38.5124 31.6539 38.7747ZM35.2612 71.7321C40.6065 74.8803 45.7551 75.1754 51.2316 72.6176C53.4287 71.601 54.7077 70.6172 57.3967 67.9609C59.4627 65.9277 59.5939 65.8621 60.2825 66.354C61.004 66.8459 61.004 66.9443 61.004 75.7001V84.5216H44.1154H27.2268V75.569C27.2268 66.7803 27.2268 66.5836 27.9154 66.2884C28.5057 66.0261 28.932 66.3212 30.9652 68.2888C32.2769 69.535 34.2118 71.1091 35.2612 71.7321ZM23.6195 76.6512V84.5216H20.9632C16.864 84.5216 17.0608 84.8167 17.0608 78.1924V72.552L20.2745 70.6827C22.0126 69.6661 23.4883 68.8135 23.5539 68.8135C23.5867 68.7807 23.6195 72.3224 23.6195 76.6512ZM67.7922 70.6827L71.006 72.5848L71.1044 77.9301C71.2028 84.6528 71.3011 84.5216 67.1692 84.5216H64.2833V76.6512C64.2833 72.3224 64.3489 68.7807 64.4145 68.7807C64.4801 68.7807 66.0214 69.6334 67.7922 70.6827ZM14.011 84.8495C14.4045 85.7677 15.5195 86.8499 16.6345 87.4402C17.1264 87.7025 24.964 87.8009 44.2138 87.8009H71.0716L72.1866 87.0467C74.1214 85.7677 74.4493 84.6528 74.4493 79.3402C74.4493 76.7823 74.5477 74.6835 74.6461 74.6835C75.2691 74.6835 79.27 77.9301 80.4177 79.373C82.0246 81.4062 83.7299 85.0135 84.2546 87.4074C84.4513 88.3584 84.6153 91.7033 84.6153 94.8515C84.6153 100.361 84.5825 100.558 83.8938 101.049C83.238 101.509 78.9092 101.574 43.9514 101.574C12.3713 101.574 4.59928 101.476 4.14017 101.148C3.61548 100.754 3.58268 100.098 3.61548 94.5236C3.61548 91.1131 3.81224 87.6698 4.009 86.8499C4.96001 82.7507 8.14097 78.1269 11.6171 75.7985L13.2895 74.6835L13.4863 79.3402C13.5847 81.9309 13.847 84.3904 14.011 84.8495Z" fill="#7C7C7C"/>
<path d="M95.3387 85.1122C94.9124 85.5713 94.7812 86.3584 94.7812 88.0636C94.7812 90.0968 94.8796 90.4575 95.5027 90.8839C97.2408 92.0972 98.0606 91.1462 98.0606 87.9652C98.0606 86.1944 97.9294 85.4073 97.5359 85.0466C96.8472 84.358 95.9946 84.3907 95.3387 85.1122Z" fill="#7C7C7C"/>
<path d="M9.05932 91.9318C8.43625 92.5221 8.33787 96.2933 8.86256 97.3427C9.25608 98.0642 10.7974 98.1953 11.4204 97.5723C11.9451 97.0476 11.9451 92.3253 11.4204 91.8006C10.863 91.2431 9.6496 91.3087 9.05932 91.9318Z" fill="#7C7C7C"/>
<path d="M17.456 91.8028C16.9313 92.3275 16.9313 97.0497 17.456 97.5744C17.9479 98.0663 19.4564 98.0663 19.9483 97.5744C20.4402 97.0825 20.473 92.9178 20.0139 92.0323C19.6204 91.3109 18.0791 91.1797 17.456 91.8028Z" fill="#7C7C7C"/>
<path d="M25.9795 91.8006C25.4548 92.3253 25.4548 97.0476 25.9795 97.5723C26.6025 98.1953 28.1438 98.0642 28.5373 97.3427C29.062 96.2933 28.9637 92.5221 28.3406 91.9318C27.7503 91.3087 26.5369 91.2431 25.9795 91.8006Z" fill="#7C7C7C"/>
<path d="M34.3059 92.1296C33.978 92.5887 33.7812 93.5725 33.7812 94.6875C33.7812 96.7862 34.4371 97.9668 35.5521 97.9668C36.831 97.9668 37.3885 96.983 37.3885 94.8186C37.3885 92.5559 36.7655 91.4081 35.5849 91.4081C35.1586 91.4081 34.5683 91.736 34.3059 92.1296Z" fill="#7C7C7C"/>
<path d="M42.8328 91.9336C42.2097 92.5238 42.1113 96.2951 42.636 97.3445C43.0623 98.0987 44.6692 98.1971 45.2595 97.4757C45.7514 96.8854 45.7514 92.4911 45.2267 91.868C44.7348 91.2449 43.4558 91.2777 42.8328 91.9336Z" fill="#7C7C7C"/>
<path d="M51.3615 91.934C50.7057 92.557 50.6073 96.9514 51.2304 97.5744C51.7223 98.0663 53.2308 98.0663 53.7227 97.5744C53.9522 97.3449 54.1162 96.1971 54.1162 94.6886C54.1162 93.1801 53.9522 92.0323 53.7227 91.8028C53.1652 91.2453 51.9518 91.3109 51.3615 91.934Z" fill="#7C7C7C"/>
<path d="M59.7607 91.8016C59.5312 92.0312 59.3672 93.179 59.3672 94.6875C59.3672 97.4093 59.6623 97.9668 61.0724 97.9668C62.253 97.9668 62.6465 97.1798 62.6465 94.6875C62.6465 93.5725 62.4826 92.3919 62.3186 92.0312C61.9251 91.3097 60.3838 91.1786 59.7607 91.8016Z" fill="#7C7C7C"/>
<path d="M68.1864 91.9327C67.6617 92.5885 67.6945 96.8517 68.252 97.5076C68.7439 98.1306 70.0228 98.0978 70.6459 97.442C71.0394 97.0812 71.1706 96.2942 71.1706 94.6873C71.1706 93.0804 71.0394 92.2934 70.6459 91.9327C69.99 91.244 68.7439 91.2768 68.1864 91.9327Z" fill="#7C7C7C"/>
<path d="M76.6114 92.1303C75.8899 93.1469 75.8899 96.7541 76.6114 97.4428C77.3001 98.1315 78.4806 98.0987 79.1365 97.3772C79.53 96.9509 79.694 96.1639 79.694 94.8193C79.694 92.5566 79.0709 91.4088 77.8903 91.4088C77.464 91.4088 76.8738 91.7367 76.6114 92.1303Z" fill="#7C7C7C"/>
</svg>
