<svg width="112" height="105" viewBox="0 0 112 105" fill="none" xmlns="http://www.w3.org/2000/svg">
<path d="M34.3436 0.0851746C30.9024 0.635252 27.845 2.88673 26.3099 5.99531C24.3271 10.025 25.0563 14.8989 28.1137 18.1354C33.3202 23.6746 42.4413 22.2546 45.7162 15.3978C47.085 12.5323 47.0977 9.00155 45.729 6.16161C44.3602 3.32168 41.8144 1.19812 38.7187 0.341024C37.6441 0.0340042 35.4694 -0.0811291 34.3436 0.0851746ZM38.2837 3.99968C40.3177 4.67768 41.9935 6.31512 42.7483 8.33634C42.9786 8.97597 43.0297 9.37253 43.0297 10.7669C43.0297 12.7242 42.8378 13.415 41.8784 14.8221C40.9446 16.1909 39.5374 17.2143 37.9255 17.6877C36.7358 18.0459 34.8425 17.9947 33.6912 17.5853C29.5464 16.127 27.6276 11.4833 29.5464 7.58158C30.5315 5.58595 32.591 4.06364 34.8297 3.66708C35.7764 3.51357 37.2603 3.64149 38.2837 3.99968Z" fill="#7C7C7C"/>
<path d="M73.658 0.148729C69.283 0.980244 65.9185 4.24233 64.9719 8.59178C64.7033 9.79428 64.7672 12.2376 65.0998 13.4529C66.2 17.6233 69.6923 20.7702 73.9394 21.4483C77.9563 22.0751 82.2162 20.2074 84.4805 16.8046C85.1969 15.73 85.7981 14.374 86.1051 13.1331C86.3354 12.1993 86.3354 9.33375 86.1051 8.3999C85.1073 4.44701 82.3313 1.53032 78.4808 0.404581C77.0352 -0.0175724 75.078 -0.119913 73.658 0.148729ZM77.5213 3.87135C80.1566 4.61331 82.2418 6.99272 82.6511 9.73032C83.2396 13.6448 80.438 17.3546 76.5235 17.8791C73.0312 18.3525 69.7691 16.2673 68.6817 12.8773C68.298 11.6876 68.298 9.79428 68.6817 8.65575C69.4109 6.5194 70.8053 4.99709 72.7753 4.16558C74.2976 3.52595 75.9095 3.42361 77.5213 3.87135Z" fill="#7C7C7C"/>
<path d="M27.734 23.557C24.8301 24.0559 21.9646 25.5527 19.8666 27.6634C17.6408 29.9277 15.594 33.9957 14.852 37.6672C14.3787 39.9698 14.3147 41.9143 14.3531 52.0204C14.3915 61.5764 14.3915 61.6915 14.6729 62.5102C15.5812 65.1583 17.8838 66.8597 20.6086 66.8852C21.1587 66.8852 21.8879 66.7957 22.31 66.6806C22.7194 66.5526 23.0776 66.4887 23.1159 66.5143C23.1415 66.5526 23.052 69.2519 22.8985 72.5012C22.6426 78.3217 22.2844 86.4066 21.9902 93.0459C21.7599 98.4571 21.8623 99.3015 23.0904 101.144C24.3824 103.075 26.7362 104.354 29.0261 104.342C29.9855 104.342 31.3415 103.996 32.3265 103.51C33.6826 102.845 34.7571 101.719 35.4991 100.21C35.8189 99.5573 36.0748 99.1352 36.0748 99.2631C36.0748 99.391 36.2794 99.9027 36.5353 100.414C37.8017 102.935 40.7312 104.546 43.5328 104.291C45.0807 104.15 46.7693 103.408 47.7927 102.436L48.202 102.052L48.8033 102.628C50.1849 103.907 52.2829 104.546 54.0866 104.227C55.1356 104.035 56.3125 103.523 56.9521 102.947C57.208 102.73 57.4638 102.551 57.5278 102.551C57.6045 102.551 57.886 102.73 58.1546 102.947C59.4339 103.984 61.2632 104.482 62.875 104.252C63.7449 104.124 64.9346 103.664 65.7662 103.114C66.0988 102.909 66.1116 102.909 66.5337 103.216C68.6317 104.789 71.3053 104.674 73.6208 102.883C73.7103 102.819 74.0045 102.947 74.4267 103.242C76.0641 104.418 78.2644 104.636 80.0682 103.792C81.0148 103.344 82.1534 102.18 82.6267 101.169C83.0744 100.184 82.8825 101.63 85.0828 81.7373L85.7608 75.5842L88.588 75.533L91.4023 75.4946L92.0803 75.1108C92.8351 74.7015 93.2572 74.2537 93.6538 73.4862C94.1399 72.5395 94.1271 72.1302 93.398 67.0388L93.2956 66.3735L94.0632 66.0154C96.3019 64.9536 98.1312 62.7021 98.6813 60.3355C99.0522 58.762 98.9627 57.7642 97.4148 46.9161C96.5961 41.2491 95.8285 36.1704 95.7006 35.646C94.3958 30.4138 90.4557 26.1027 85.3259 24.2862C82.9721 23.4547 82.6395 23.4291 76.3711 23.4291C70.1924 23.4291 69.8725 23.4547 67.685 24.1583C65.1649 24.9642 62.8367 26.4098 60.9562 28.367C59.92 29.4544 58.5768 31.3093 58.2186 32.1664L58.0523 32.5757H56.8114C56.1334 32.5757 55.3786 32.6141 55.1356 32.6525L54.6878 32.7165L53.9843 31.3988C51.8607 27.4332 48.7649 24.9258 44.5434 23.7745L43.3025 23.4419L36.0108 23.4163C30.4333 23.3907 28.4888 23.4291 27.734 23.557ZM43.5584 27.2413C46.6669 28.124 48.9696 29.9149 50.5687 32.6909C50.9652 33.3945 51.2978 34.0213 51.2978 34.0725C51.2978 34.1236 51.0932 34.3155 50.8373 34.4818C50.0314 35.0319 48.637 36.6693 48.1125 37.68C47.2426 39.3558 47.0123 40.328 47.0123 42.2341C47.0123 44.1018 47.2042 44.9333 47.9334 46.4556C49.1487 49.0013 51.4258 50.8818 54.1889 51.6494C55.4554 51.9948 57.579 52.0331 58.8966 51.7133C60.1247 51.4191 61.6981 50.6516 62.6832 49.8584C64.2311 48.6303 65.2289 47.1976 65.9069 45.2275C66.2906 44.1018 66.3162 43.9099 66.329 42.2981C66.329 40.392 66.1116 39.4197 65.344 37.8846C64.6276 36.4647 63.2588 34.9296 61.9924 34.1364L61.4167 33.7654L61.7109 33.2538C62.9902 31.0151 65.4591 28.8915 67.9281 27.8809C69.9365 27.075 70.2563 27.0366 75.6036 26.9854C79.5948 26.9342 80.7718 26.9598 81.8335 27.1261C86.6563 27.8553 90.7115 31.3988 92.0931 36.0937C92.2338 36.5798 93.0142 41.684 93.8457 47.4151C95.5087 59.1074 95.5087 59.0434 94.7923 60.4634C94.2167 61.6019 92.7455 62.9835 92.7455 62.3695C92.7455 62.2416 92.5537 60.796 91.7861 55.1545C91.3512 51.982 90.3661 44.6647 90.1231 42.8737C89.2404 36.2728 89.2916 36.5158 88.4856 36.0297C87.6413 35.518 86.4644 35.8378 86.0167 36.6949C85.7608 37.1938 85.7608 37.5904 86.0039 39.4837C86.1958 40.8525 86.3749 42.2213 87.1936 48.1826C87.3599 49.4874 87.6157 51.3551 87.7565 52.3402C87.8844 53.3252 88.2938 56.3186 88.6519 58.9923C90.2126 70.4799 90.3917 71.8615 90.3278 71.9127C90.3022 71.9511 86.1702 71.9767 81.1555 71.9767H72.0473L71.9961 67.6528C71.9449 64.2628 71.8938 63.1243 71.7147 62.2927C71.1646 59.6319 69.9749 57.4955 67.9537 55.5895C66.2139 53.9392 64.1927 52.8902 61.7877 52.4041C60.5596 52.1483 60.1502 52.1355 57.1184 52.1867C53.2807 52.2506 52.4875 52.3913 50.4279 53.3636C47.0635 54.9626 44.6713 57.8154 43.6095 61.4868C43.2002 62.8812 43.1106 64.7361 43.1106 71.2731C43.1106 78.1043 43.1618 78.6927 43.827 79.908C44.262 80.7139 45.2981 81.699 46.168 82.1339L46.8332 82.4793L46.7949 89.9885C46.7565 98.2141 46.7693 97.9582 45.9762 99.1096C45.2086 100.223 43.5712 100.913 42.3303 100.645C40.5521 100.261 39.5031 99.0584 39.3368 97.1779C39.2985 96.7174 39.0938 92.8924 38.8763 88.6709C37.7122 65.0303 37.8017 66.5398 37.5203 66.0665C37.1621 65.4525 36.676 65.1583 36.0364 65.1583C35.32 65.1583 34.6932 65.5164 34.4117 66.0921C34.1687 66.5526 34.1687 66.7062 33.5802 78.5648C33.4651 80.6756 33.3244 83.4387 33.2604 84.7052C33.1964 85.9717 33.0557 88.8244 32.9406 91.0375C32.6208 97.3954 32.5696 98.0734 32.2626 98.6618C31.5846 100.005 30.4716 100.696 29.0261 100.683C27.4782 100.657 26.4164 99.9411 25.7384 98.4571L25.4058 97.7536L25.7 91.1654C26.0326 83.4643 26.3652 75.6609 26.7362 67.4481C26.9537 62.5614 26.9921 59.6191 26.9921 50.0503C26.9921 39.3302 26.9793 38.4987 26.7618 38.0893C26.1222 36.8229 24.4975 36.7461 23.7044 37.9358L23.4102 38.3708V49.5898C23.4102 61.9857 23.423 61.6915 22.617 62.4718C21.9134 63.1243 21.4273 63.3161 20.5191 63.2522C19.5213 63.1882 18.7793 62.7277 18.3315 61.8706L18.0245 61.2949L18.0757 50.3573L18.1141 39.4197L18.4467 38.0765C19.2654 34.8016 20.6854 32.0129 22.4507 30.2219C24.1266 28.5205 26.2373 27.4332 28.5911 27.0878C29.0133 27.0238 32.3777 26.9854 36.0748 26.9982C41.9593 27.0238 42.8804 27.0494 43.5584 27.2413ZM58.7687 36.1576C61.3911 37.0659 63.0797 39.4453 63.0797 42.2469C63.0797 44.6775 61.8133 46.8138 59.7409 47.914C55.0716 50.4085 49.5453 46.5707 50.2872 41.3386C50.5942 39.1127 52.3212 36.9508 54.368 36.2216C55.7752 35.7099 57.4382 35.6843 58.7687 36.1576ZM61.6598 56.0244C62.0435 56.1395 62.8495 56.4721 63.4507 56.7664C64.3206 57.2013 64.7555 57.5211 65.6382 58.4038C66.8151 59.5807 67.3524 60.4122 67.9025 61.8962L68.2479 62.83L68.2863 70.3904L68.3247 77.9508L67.9665 78.3729C67.5827 78.8334 66.9687 79.1405 66.4314 79.1405C65.9708 79.1405 65.3184 79.537 65.0242 79.9976C64.8067 80.3174 64.7939 80.957 64.73 89.6431L64.666 98.9433L64.2822 99.5061C63.1309 101.131 60.7771 101.08 59.7793 99.3782L59.4211 98.777L59.3571 90.4618C59.2931 82.7096 59.2804 82.1083 59.0629 81.7885C58.3337 80.6756 56.7986 80.6756 56.0694 81.7885C55.852 82.1083 55.8392 82.7096 55.7752 90.4618L55.7112 98.777L55.3531 99.3782C54.3552 101.08 52.0014 101.131 50.8501 99.5061L50.4663 98.9433L50.4024 89.6431C50.3384 80.957 50.3256 80.3174 50.1081 79.9976C49.8139 79.537 49.1615 79.1405 48.701 79.1405C48.1637 79.1405 47.5496 78.8334 47.1659 78.3857L46.8205 77.9636V70.7742C46.8205 64.0069 46.8332 63.508 47.0763 62.5614C47.959 59.0818 50.8757 56.4082 54.4192 55.8453C55.5833 55.6662 60.8666 55.7941 61.6598 56.0244ZM82.0766 76.0959C82.0382 76.4029 81.4626 81.6478 80.7846 87.7754C80.1193 93.8902 79.5053 99.1224 79.4285 99.4038C79.0704 100.721 77.4969 101.105 76.3711 100.171C75.5524 99.4805 75.6036 100.248 75.6036 87.3277V75.5586H78.8785H82.1534L82.0766 76.0959ZM71.9321 88.5046C71.9066 94.2228 71.8682 99.0328 71.8298 99.1863C71.7147 99.6596 71.0239 100.35 70.4354 100.568C69.7574 100.824 68.9771 100.67 68.4782 100.171C68.2095 99.9027 68.1711 99.762 68.2351 99.3782C68.2735 99.1224 68.3119 95.2079 68.3119 90.6921V82.4665L68.9771 82.1339C69.9109 81.6606 70.9215 80.65 71.3821 79.7417C71.5867 79.3196 71.7658 78.8718 71.7658 78.7439C71.7658 78.552 71.881 78.1171 71.9449 78.1171C71.9449 78.1171 71.9449 82.7991 71.9321 88.5046Z" fill="#7C7C7C"/>
<path d="M0.92106 50.6111C0.0895475 51.1228 0 51.4427 0 53.9116C0 55.5618 0.05117 56.2143 0.179095 56.4701C0.857098 57.7621 2.58409 57.8773 3.32605 56.6876C3.55632 56.3166 3.5819 56.048 3.5819 53.9884C3.5819 51.9288 3.55632 51.6601 3.32605 51.2763C2.99345 50.7391 2.35382 50.3553 1.79095 50.3553C1.54789 50.3553 1.15133 50.4704 0.92106 50.6111Z" fill="#7C7C7C"/>
<path d="M9.83581 50.6511C9.05547 51.1628 8.95312 51.5594 8.95312 53.9388C8.95312 55.6913 8.9915 56.1263 9.18339 56.4973C9.83581 57.8021 11.6907 57.8661 12.3687 56.5996C12.5606 56.2414 12.5862 55.8576 12.5734 53.9004C12.5478 51.9431 12.5222 51.5594 12.3176 51.214C11.8442 50.3824 10.6289 50.1138 9.83581 50.6511Z" fill="#7C7C7C"/>
<path d="M99.8027 50.6137C99.5341 50.78 99.2782 51.0999 99.1119 51.458C98.8817 51.9825 98.8689 52.264 98.9073 54.1828C98.9456 56.5495 99.0224 56.7925 99.8155 57.2658C100.621 57.7647 101.76 57.4833 102.297 56.6646C102.489 56.3704 102.54 55.9738 102.566 54.1828C102.604 52.264 102.592 51.9825 102.361 51.458C102.041 50.7545 101.453 50.3579 100.737 50.3579C100.442 50.3579 100.046 50.473 99.8027 50.6137Z" fill="#7C7C7C"/>
<path d="M108.903 50.5636C108.058 50.9858 107.969 51.3184 107.969 53.9281C107.969 56.5377 108.033 56.7936 108.8 57.2669C109.414 57.6507 110.374 57.5739 110.873 57.1262C111.461 56.5761 111.551 56.1668 111.551 53.9153C111.551 52.1883 111.512 51.7533 111.32 51.3824C110.873 50.4741 109.811 50.1159 108.903 50.5636Z" fill="#7C7C7C"/>
</svg>
