<svg width="104" height="104" viewBox="0 0 104 104" fill="none" xmlns="http://www.w3.org/2000/svg">
<path d="M79.82 0.0516052C76.0461 0.361788 72.5694 2.77863 70.8764 6.28111C70.1268 7.84495 69.907 8.7238 69.8166 10.4686C69.6873 12.9371 70.1914 14.9921 71.4063 16.9307C75.7617 23.9357 85.791 24.0391 90.2499 17.1246C92.3953 13.816 92.5892 9.47341 90.7668 5.98385C89.7071 3.95474 88.0527 2.31336 86.0624 1.27941C83.9816 0.206697 82.2239 -0.14226 79.82 0.0516052ZM83.3612 3.64456C85.623 4.36832 87.5358 6.29404 88.3242 8.62041C89.7458 12.8466 87.3936 17.3701 83.0898 18.6626C81.6035 19.1149 79.8846 19.0762 78.4371 18.5721C74.5856 17.228 72.3885 13.4153 73.2027 9.53803C73.836 6.55252 76.0978 4.21323 79.0704 3.46362C80.1043 3.19221 82.2627 3.2956 83.3612 3.64456Z" fill="#7C7C7C"/>
<path d="M22.5347 0.280537C18.3213 1.41787 15.3875 4.36461 14.3148 8.56501C13.9659 9.92206 13.9659 12.1838 14.3277 13.6701C15.3229 17.9222 18.8254 21.2567 23.1033 22.058C29.6818 23.2987 35.8854 18.4392 36.2603 11.7315C36.4283 8.60378 35.3814 5.76044 33.2101 3.48576C31.7367 1.94777 29.992 0.875053 28.0921 0.345158C26.8643 0.00912666 23.6978 -0.0296459 22.5347 0.280537ZM27.0711 3.49868C28.8417 3.97688 30.3539 4.97205 31.4007 6.36788C33.7917 9.5214 33.4815 13.8898 30.6899 16.6427C28.4669 18.8398 25.4168 19.5377 22.5088 18.5167C20.092 17.6637 18.0887 15.4407 17.4942 12.9463C17.0806 11.1757 17.3649 9.00443 18.2309 7.36305C18.7866 6.31618 20.3505 4.75234 21.3973 4.1966C23.0904 3.30482 25.3005 3.03341 27.0711 3.49868Z" fill="#7C7C7C"/>
<path d="M42.9046 7.62074C41.9869 8.09894 41.9223 8.30572 41.8835 10.9681C41.8448 13.204 41.8577 13.372 42.1162 13.8373C42.4781 14.4706 43.0467 14.8066 43.7576 14.8066C44.4038 14.8066 44.8691 14.5223 45.3214 13.8632C45.5928 13.4625 45.6057 13.3074 45.6057 11.162C45.6057 8.6676 45.5153 8.26695 44.8174 7.74998C44.3262 7.3881 43.4474 7.3364 42.9046 7.62074Z" fill="#7C7C7C"/>
<path d="M52.2113 7.63628C51.3066 8.08863 51.229 8.30834 51.1903 10.932C51.1386 13.5814 51.2549 14.0467 52.0303 14.5249C52.5861 14.8739 53.5425 14.8868 53.9819 14.5508C54.822 13.9304 54.8478 13.8141 54.8478 11.1129C54.8478 8.69607 54.8349 8.61852 54.5376 8.19202C53.9948 7.44241 53.0384 7.20977 52.2113 7.63628Z" fill="#7C7C7C"/>
<path d="M61.3993 7.64981C60.5463 8.19263 60.4688 8.48989 60.4688 11.1394C60.4688 13.3236 60.4946 13.5433 60.7402 13.9569C61.2571 14.784 62.5625 15.0942 63.2733 14.5643C64.1005 13.9439 64.1522 13.7888 64.1909 11.3849C64.2426 8.87761 64.1134 8.27017 63.4155 7.77905C62.8468 7.3784 61.9421 7.31378 61.3993 7.64981Z" fill="#7C7C7C"/>
<path d="M78.2399 23.1834C75.0088 23.597 71.4417 25.0187 68.6113 27.0478C64.8633 29.736 62.1621 33.2902 60.4561 37.7879C59.2154 41.0706 58.7242 41.691 55.8938 43.5909L53.9681 44.8704L50.7629 43.2548C46.64 41.187 46.64 41.187 44.0552 36.9478C41.7159 33.1093 40.5915 31.6101 38.7304 29.8265C35.1116 26.337 30.8336 24.2044 25.8966 23.4161C24.5783 23.1964 21.037 23.1964 19.6929 23.4161C17.3536 23.7779 14.3164 24.7214 12.5199 25.6261C10.1289 26.8281 7.42775 28.9735 5.90268 30.8863C4.42931 32.7474 1.36626 37.1158 0.952681 37.9688C0.215997 39.4422 -0.0554129 40.7992 0.00920858 42.4923C0.07383 43.9011 0.0867544 43.9398 1.85738 49.2776C2.8267 52.2243 3.84772 55.0418 4.10621 55.5458C5.15307 57.5879 7.85425 59.3585 9.89629 59.3585H10.3228V60.1081C10.3228 60.5217 10.0643 63.5072 9.7412 66.7383C9.41809 69.9693 8.99159 74.3765 8.77188 76.5478C7.71208 87.3525 7.20804 92.5481 7.0271 94.2929C6.78154 96.7614 6.78154 97.2396 7.09172 98.4415C7.44067 99.8374 7.90595 100.626 9.03036 101.763C10.5554 103.314 12.0934 103.96 14.2647 103.96C16.3714 103.96 18.1032 103.249 19.5637 101.789C20.3391 101.001 21.3084 99.4367 21.3084 98.9585C21.3084 98.5966 21.5281 98.7905 21.6703 99.2687C21.903 100.044 22.743 101.22 23.6219 102.047C25.0565 103.366 26.6203 103.96 28.6107 103.96C30.769 103.96 32.2812 103.327 33.8579 101.75C34.9823 100.639 35.5381 99.6435 35.8353 98.2218C36.055 97.162 36.1197 92.4188 36.2489 65.8206L36.3265 50.1176L37.1924 50.9448C38.8984 52.5732 40.9275 53.9303 43.0212 54.835C43.6287 55.1064 45.6578 55.8172 47.5318 56.4376C50.8146 57.5362 50.9697 57.575 52.0941 57.562C52.7274 57.562 53.296 57.5233 53.3607 57.4845C53.4124 57.4586 53.9423 57.5491 54.5368 57.6913C55.8421 58.0273 57.3026 57.9756 58.4011 57.562C59.3705 57.2001 63.713 54.6799 64.9538 53.7752C65.5095 53.3616 66.3883 52.625 66.9053 52.1468L67.8359 51.2679V56.7736C67.8359 60.8706 67.7325 64.4248 67.4481 70.7965C66.9312 82.325 66.8407 84.3153 66.5951 89.2782C66.4788 91.6175 66.3754 94.5255 66.3754 95.7404C66.3496 97.7953 66.3754 98.0021 66.6985 98.9327C67.125 100.225 67.6549 101.039 68.663 101.97C70.9765 104.141 74.298 104.606 77.1284 103.185C78.563 102.448 80.269 100.574 80.6568 99.2687C80.7343 98.9973 80.8377 98.7776 80.8894 98.7776C80.9411 98.7776 81.0445 98.9973 81.122 99.2687C81.5098 100.574 83.2028 102.448 84.6116 103.159C85.736 103.728 86.7182 103.96 88.0624 103.96C90.1303 103.96 91.6683 103.34 93.1804 101.905C94.5633 100.6 95.3258 98.9585 95.4421 96.9682C95.468 96.3607 95.1837 89.2395 94.8088 81.1359C94.434 73.0324 94.1239 66.3893 94.1368 66.3764C94.1368 66.3635 94.4082 66.441 94.7184 66.5444C95.5197 66.8287 96.9543 66.9063 97.8848 66.7383C100.224 66.3118 102.227 64.3861 102.964 61.8787C103.119 61.3488 103.158 59.7204 103.184 52.7025C103.21 43.5263 103.145 41.3291 102.719 39.2871C101.517 33.4712 97.7297 28.5858 92.3274 25.8587C90.2466 24.8119 86.421 23.6358 83.7586 23.2351C82.4015 23.0283 79.6874 23.0025 78.2399 23.1834ZM83.681 26.9832C84.9218 27.2029 85.4775 27.345 87.7134 28.03C90.6085 28.9218 92.8702 30.253 94.8476 32.2175C97.4842 34.8541 98.9834 38.0851 99.3711 42.0141C99.4616 42.9059 99.5004 46.4988 99.4745 52.2501L99.4357 61.1033L99.0739 61.7236C98.1821 63.2358 96.2047 63.5718 94.8993 62.4216C93.9429 61.5944 94.0205 62.4345 93.9429 50.4407C93.8783 40.3081 93.8654 39.6102 93.6457 39.2871C92.8702 38.0981 90.9833 38.1497 90.4017 39.3776C90.2207 39.7653 90.1949 40.9543 90.1949 50.4149C90.1949 61.6849 90.1432 59.8109 91.0996 81.2005C91.7329 95.4173 91.7846 97.0199 91.6295 97.5627C91.1642 99.2687 89.2514 100.535 87.5713 100.264C86.253 100.044 85.0381 99.0231 84.6116 97.7953C84.3273 97.007 84.3531 97.3042 83.7198 84.5609C82.7634 65.1227 82.7376 64.5799 82.5695 64.2568C81.9621 63.0807 80.6697 62.7834 79.7133 63.5847C79.4936 63.7657 79.2609 64.0759 79.1834 64.2568C79.0671 64.5541 78.3304 78.1763 77.7229 91.2815C77.4903 96.309 77.374 97.4205 77.0121 98.1314C76.3013 99.5143 75.1639 100.251 73.7164 100.251C71.6744 100.238 70.201 98.868 70.0718 96.8519C70.0201 96.141 71.0282 72.7481 71.4547 64.6962C71.5193 63.3392 71.5839 57.1484 71.5839 50.9319C71.5839 39.9074 71.571 39.636 71.3254 39.2225C70.55 37.9559 68.8052 38.0076 68.1331 39.3259C67.8488 39.8558 67.8359 40.0625 67.8359 42.376V44.8445L66.789 46.3437C65.6387 47.9981 63.9844 49.8333 62.8859 50.6734C62.2267 51.1904 58.259 53.5684 58.1814 53.5038C58.1685 53.478 58.2331 53.1807 58.3494 52.8317C58.5821 52.0692 58.6079 50.2857 58.3882 49.5102C58.2202 48.8769 57.6903 47.7654 57.393 47.4294C57.2896 47.3131 57.225 47.1838 57.2509 47.1709C57.2767 47.1451 57.91 46.7056 58.6596 46.2016C61.503 44.2629 62.4464 43.0351 63.8164 39.4293C65.2122 35.7458 66.621 33.6521 69.3092 31.2223C71.6356 29.1157 74.8667 27.5389 77.9168 27.009C79.4031 26.7505 82.2464 26.7376 83.681 26.9832ZM26.7366 27.358C30.433 28.2239 33.7416 30.0462 36.3652 32.6699C37.7223 34.0269 38.6916 35.3193 40.2296 37.8396C42.6206 41.7427 43.1376 42.4923 44.0164 43.3712C45.3218 44.6636 45.8258 44.9738 49.9228 47.0029C53.5933 48.7994 54.2137 49.2 54.6014 49.9367C55.4285 51.5522 54.3171 53.6072 52.4818 53.8786C51.9648 53.9562 51.5125 53.8398 48.8501 52.961C45.2184 51.7719 44.0293 51.2937 42.711 50.5183C40.2942 49.0837 39.299 48.0756 35.2408 42.88C33.509 40.6829 31.9063 38.7443 31.6608 38.5892C30.6139 37.8783 29.2052 38.5246 28.895 39.8558C28.7399 40.4761 29.0372 41.006 30.8207 43.2807L32.5913 45.5554L32.5138 66.958C32.4104 89.9632 32.3328 96.8906 32.1519 97.6273C31.9839 98.3123 31.3894 99.1136 30.6915 99.6177C28.7399 101.001 25.9353 100.109 25.1082 97.847C24.9272 97.3559 24.9143 95.9989 24.9789 85.1425C25.0177 78.4606 25.0952 71.1584 25.134 68.9096C25.2116 65.0193 25.2116 64.7996 24.9531 64.2439C24.63 63.4943 23.777 63.029 23.0144 63.1712C22.3424 63.3004 21.7349 63.7915 21.5669 64.3731C21.4506 64.7867 20.0677 77.2845 18.4522 92.5093C17.9481 97.3042 17.9352 97.4464 17.5216 98.2606C16.5264 100.264 14.045 100.897 12.1968 99.6177C11.1758 98.9197 10.5942 97.8729 10.5813 96.7226C10.5813 96.4124 10.9302 92.5998 11.3567 88.2572C11.7832 83.9146 12.2744 78.9 12.4553 77.1294C12.6233 75.3458 13.011 71.5073 13.2954 68.5994C13.5797 65.6785 13.864 62.7705 13.9157 62.1372C13.9804 61.491 14.0191 56.205 14.0191 50.3761C14.0062 40.4503 13.9933 39.7524 13.7736 39.3517C13.1144 38.1368 11.1499 38.111 10.5167 39.3129C10.3486 39.649 10.3228 40.7217 10.3228 47.662C10.3228 55.352 10.3099 55.6105 10.0772 55.6105C9.71535 55.6105 8.79772 55.2615 8.3583 54.9513C7.53114 54.3568 7.27266 53.7881 5.47618 48.3858C3.84772 43.4746 3.7314 43.0481 3.7314 42.1434C3.7314 40.9543 4.04159 39.8687 4.6361 38.9898C8.95282 32.6311 10.8527 30.6537 14.2647 28.9477C15.6217 28.2756 17.3536 27.694 19.1759 27.3192C21.0499 26.9315 21.0499 26.9315 23.3117 26.9832C24.9272 27.0219 25.6768 27.0995 26.7366 27.358Z" fill="#7C7C7C"/>
</svg>
