<svg width="105" height="105" viewBox="0 0 105 105" fill="none" xmlns="http://www.w3.org/2000/svg">
<path d="M51.5981 0.113197C51.4387 0.166328 48.4207 2.38728 44.8927 5.02267L38.4743 9.83651L38.4318 7.9131C38.3893 6.09595 38.368 5.95781 38.113 5.45836C37.7623 4.78889 37.1672 4.1938 36.4871 3.8325L35.9558 3.54558H33.0866H30.2174L29.6861 3.86438C29.0698 4.22568 28.4747 4.81014 28.2621 5.25645C28.1877 5.42648 28.0709 5.66026 27.9965 5.77716C27.9115 5.92593 27.8583 7.78558 27.8264 11.9087L27.7733 17.8171L27.0826 18.359C26.7 18.6672 26.3068 18.9754 26.2006 19.0604C26.1049 19.1454 25.9774 19.2198 25.9349 19.2198C25.8924 19.2198 25.7755 19.3048 25.6799 19.4004C25.5949 19.5067 25.2761 19.7617 24.9785 19.9636C24.681 20.1655 24.4366 20.3674 24.4259 20.4099C24.4259 20.4631 24.3622 20.495 24.2878 20.495C24.2134 20.495 24.0753 20.58 23.9796 20.6756C23.884 20.7819 23.6502 20.9838 23.4483 21.1219C22.6194 21.717 22.6726 21.3238 22.6726 27.0303C22.6726 31.8229 22.6832 32.1523 22.8745 32.418C23.2145 32.928 23.6821 33.1406 24.4578 33.1406C25.0848 33.1406 25.2229 33.0981 25.648 32.8005C25.9137 32.6199 26.1262 32.4286 26.1262 32.3755C26.1262 32.333 26.1687 32.2904 26.2218 32.2904C26.2856 32.2904 26.6575 32.046 27.0507 31.7485L27.7733 31.1959L27.8264 43.9372L27.8796 56.6784L28.1665 57.2735C28.5491 58.0492 29.1123 58.5912 29.9093 58.9738L30.5575 59.2819H52.2676H73.9776L74.6258 58.9738C75.4228 58.5912 75.986 58.0492 76.3686 57.2735L76.6555 56.6784L76.7087 43.9372L76.7618 31.1959L77.4844 31.7485C77.8776 32.046 78.2495 32.2904 78.3133 32.2904C78.3664 32.2904 78.4089 32.333 78.4089 32.3755C78.4089 32.4286 78.6214 32.6199 78.8871 32.8005C79.3122 33.0981 79.4503 33.1406 80.0879 33.1406C80.8636 33.1406 81.1824 32.9918 81.6181 32.4498L81.8625 32.131V27.0303C81.8625 21.3238 81.9157 21.717 81.0868 21.1219C80.8849 20.9838 80.6511 20.7819 80.5555 20.6756C80.4598 20.58 80.3217 20.495 80.2473 20.495C80.1729 20.495 80.1092 20.4631 80.1092 20.4099C80.0985 20.3674 79.8541 20.1655 79.5566 19.9636C79.259 19.7617 78.9402 19.5067 78.8552 19.4004C78.7596 19.3048 78.6427 19.2198 78.6002 19.2198C78.5577 19.2198 78.4302 19.156 78.3345 19.071C77.6544 18.5184 76.9106 17.934 76.4961 17.647C76.2305 17.4664 75.731 17.0945 75.3803 16.8288C74.7852 16.3718 74.4664 16.1381 72.6918 14.7885C72.3199 14.5122 71.7779 14.1084 71.5016 13.9065C71.2147 13.7046 70.7259 13.3433 70.4177 13.0989C67.2616 10.6654 53.2452 0.261967 52.9583 0.134449C52.5438 -0.0355759 52.0338 -0.0462036 51.5981 0.113197ZM55.8593 6.85044C57.7721 8.28503 59.6424 9.68773 60.0249 9.97465C61.6083 11.1755 62.0865 11.5368 62.5753 11.8874C63.3723 12.4719 64.4456 13.2795 65.1257 13.8002C65.4657 14.0659 68.5687 16.3825 72.0223 18.9541L78.292 23.6298V25.617C78.3026 26.7221 78.2814 27.6148 78.2495 27.6148C78.1964 27.6148 77.8244 27.3385 76.4961 26.3396C76.1136 26.0527 72.2455 23.1516 67.8886 19.8892C63.5317 16.6269 59.9293 13.9277 59.8655 13.8746C59.6849 13.7365 58.5904 12.9076 58.2822 12.6844C58.1228 12.5675 57.7402 12.2806 57.4321 12.0468C57.1239 11.813 56.7413 11.5261 56.5819 11.4092C55.7743 10.8354 54.8711 10.1234 54.8392 10.049C54.8179 10.0065 54.7329 9.97465 54.6585 9.97465C54.5735 9.97465 54.4673 9.91089 54.4247 9.83651C54.3822 9.76212 54.2016 9.61335 54.0316 9.49646C52.9158 8.73134 52.8626 8.69946 52.2676 8.69946C51.6725 8.69946 51.6193 8.73134 50.5035 9.49646C50.3335 9.61335 50.1529 9.76212 50.1104 9.83651C50.0679 9.91089 49.9616 9.97465 49.8766 9.97465C49.8022 9.97465 49.7172 10.0065 49.6959 10.049C49.664 10.1234 48.7608 10.8354 47.9532 11.4092C47.7938 11.5261 47.4112 11.813 47.103 12.0468C46.7949 12.2806 46.4123 12.5675 46.2529 12.6844C45.9447 12.9076 44.8502 13.7365 44.6696 13.8746C44.6164 13.9277 41.0034 16.6269 36.6465 19.8892C32.2896 23.1516 28.4215 26.0527 28.039 26.3396C26.7107 27.3385 26.3387 27.6148 26.2856 27.6148C26.2537 27.6148 26.2325 26.7221 26.2431 25.617V23.6298L32.5234 18.9541C35.9664 16.3825 39.0375 14.0871 39.3456 13.8427C39.6432 13.6089 40.1108 13.2583 40.3977 13.067C40.674 12.8863 40.8971 12.6844 40.8971 12.6313C40.8971 12.5675 40.9396 12.525 40.9928 12.525C41.1203 12.525 42.5336 11.473 42.5761 11.3455C42.5974 11.2923 42.6611 11.2498 42.7036 11.2498C42.8205 11.2498 44.2339 10.1872 44.2764 10.0703C44.2976 10.0172 44.3614 9.97465 44.4039 9.97465C44.5102 9.97465 51.0242 5.12894 51.9381 4.37445C52.0869 4.25756 52.2569 4.17255 52.2994 4.20443C52.3526 4.23631 53.9572 5.42648 55.8593 6.85044ZM34.84 9.83651V12.5782L34.4893 12.8119C34.1174 13.067 33.2354 13.7365 32.2684 14.4909C31.9283 14.7566 31.6308 14.9691 31.5989 14.9691C31.567 14.9691 31.5457 13.1945 31.5457 11.0373V7.10548H33.1929H34.84V9.83651ZM52.682 13.1095C52.9689 13.3858 54.0528 14.2253 54.1166 14.2253C54.1485 14.2253 54.2653 14.2997 54.3716 14.3847C54.8604 14.8204 55.7743 15.5005 55.8593 15.5005C55.9231 15.5005 55.9869 15.543 56.0081 15.5961C56.0506 15.713 57.4639 16.7757 57.5808 16.7757C57.6233 16.7757 57.6871 16.8182 57.7084 16.8713C57.7509 16.9988 59.1642 18.0508 59.2917 18.0508C59.3448 18.0508 59.3874 18.0933 59.3874 18.1359C59.3874 18.1784 59.7274 18.4547 60.1418 18.7416C60.5456 19.0391 60.992 19.3685 61.1301 19.4854C61.2683 19.6023 61.6508 19.8892 61.9909 20.123C62.3309 20.3568 62.6816 20.6331 62.7772 20.7287C62.8622 20.835 63.0004 20.92 63.0748 20.92C63.1492 20.92 63.2129 20.9519 63.2129 20.9944C63.2235 21.0475 63.468 21.2494 63.7655 21.4513C64.063 21.6533 64.3818 21.9083 64.4669 22.0039C64.5625 22.1102 64.7006 22.1952 64.775 22.1952C64.8494 22.1952 64.9132 22.2271 64.9132 22.2696C64.9238 22.3227 65.1682 22.5246 65.4657 22.7265C65.7633 22.9284 66.0821 23.1835 66.1671 23.2791C66.2627 23.3854 66.3796 23.4704 66.4221 23.4704C66.4646 23.4704 66.5922 23.5342 66.6878 23.6192C67.3679 24.1717 68.1118 24.7562 68.5262 25.0431C68.7919 25.2238 69.2913 25.5957 69.642 25.8614C70.7684 26.7221 71.6398 27.381 72.3305 27.8804L72.9894 28.3799V42.0244V55.6689H67.8886H62.7879V48.124C62.7879 40.9724 62.7772 40.526 62.5753 39.6228C62.4584 39.1021 62.2884 38.4645 62.1928 38.2201C60.9813 34.9683 58.4628 32.6305 55.0836 31.6422C54.3291 31.4191 54.0209 31.3872 52.2676 31.3872C50.5142 31.3872 50.206 31.4191 49.4515 31.6422C46.0723 32.6305 43.5538 34.9683 42.3423 38.2201C42.2467 38.4645 42.0767 39.1021 41.9598 39.6228C41.7579 40.526 41.7472 40.9724 41.7472 48.124V55.6689H36.6465H31.5457V42.0244V28.3799L32.2152 27.8804C32.8953 27.381 33.7667 26.7221 34.8931 25.8614C35.2438 25.5957 35.7432 25.2238 36.0089 25.0431C36.4233 24.7562 37.1672 24.1717 37.8473 23.6192C37.9429 23.5342 38.0705 23.4704 38.113 23.4704C38.1555 23.4704 38.2724 23.3854 38.368 23.2791C38.453 23.1835 38.7718 22.9284 39.0694 22.7265C39.3669 22.5246 39.6113 22.3227 39.6219 22.2696C39.6219 22.2271 39.6857 22.1952 39.7601 22.1952C39.8345 22.1952 39.9726 22.1102 40.0683 22.0039C40.1533 21.9083 40.4721 21.6533 40.7696 21.4513C41.0672 21.2494 41.3116 21.0475 41.3222 20.9944C41.3222 20.9519 41.3859 20.92 41.4603 20.92C41.5347 20.92 41.6729 20.835 41.7579 20.7287C41.8535 20.6331 42.2042 20.3568 42.5442 20.123C42.8843 19.8892 43.2668 19.6023 43.405 19.4854C43.5431 19.3685 43.9895 19.0391 44.3933 18.7416C44.8077 18.4547 45.1478 18.1784 45.1478 18.1359C45.1478 18.0933 45.1903 18.0508 45.2434 18.0508C45.3709 18.0508 46.7842 16.9988 46.8267 16.8713C46.848 16.8182 46.9118 16.7757 46.9543 16.7757C47.0712 16.7757 48.4845 15.713 48.527 15.5961C48.5483 15.543 48.612 15.5005 48.6758 15.5005C48.7608 15.5005 49.6747 14.8204 50.1741 14.3847C50.2698 14.2997 50.3866 14.2253 50.4185 14.2253C50.4823 14.2253 51.6193 13.3433 51.8425 13.1095C52.0338 12.9076 52.4695 12.9076 52.682 13.1095ZM53.7234 35.149C55.1474 35.4997 56.2206 36.0948 57.1451 37.0618C57.6658 37.5931 58.5372 38.847 58.5372 39.0489C58.5372 39.1127 58.6435 39.3996 58.7816 39.6865L59.0154 40.2072L59.0473 47.9328L59.0792 55.6689H52.2676H45.4559L45.4878 47.9328L45.5197 40.2072L45.7641 39.6865C45.8916 39.3996 45.9979 39.1233 45.9979 39.0702C45.9979 38.8364 46.7842 37.6781 47.3049 37.1362C49.0371 35.3403 51.4493 34.5964 53.7234 35.149Z" fill="#7C7C7C"/>
<path d="M3.73275 45.9452C1.89435 46.6572 0.619164 48.0811 0.151595 49.9408C-0.167202 51.2585 0.0134494 52.5868 0.72543 54.1276C1.44804 55.6685 1.80934 56.4549 2.2344 57.4219C2.67009 58.3995 2.85074 58.8033 3.65836 60.5355C3.9134 61.0774 4.12593 61.545 4.12593 61.5662C4.12593 61.5875 4.29596 61.9807 4.50849 62.4376C4.72102 62.8946 4.97606 63.4578 5.08232 63.6915C5.18859 63.9253 5.49676 64.5842 5.76242 65.158C6.02809 65.7318 6.25125 66.21 6.25125 66.2419C6.25125 66.4332 7.9515 69.8762 8.38719 70.5457C8.55721 70.8113 8.72724 71.0983 8.76974 71.1833C8.87601 71.4171 9.48172 72.2141 10.0024 72.8198C10.2468 73.1067 12.9885 75.8802 16.1021 78.9938C19.9489 82.8619 21.7129 84.6896 21.6385 84.764C21.5216 84.8809 21.3516 85.1678 21.1072 85.6354C21.0009 85.8479 20.969 87.5907 20.969 94.0304V102.16L21.256 102.638C21.6279 103.254 22.223 103.828 22.8287 104.147L23.3069 104.391H33.9866H44.6663L45.1976 104.126C45.8777 103.796 46.4834 103.169 46.8341 102.425L47.1104 101.841L47.1423 94.1898C47.1635 87.2825 47.1529 86.4855 46.9935 85.9542C46.5897 84.6471 45.5164 83.7014 44.2625 83.5526L43.6568 83.4782V81.236C43.6568 78.8982 43.4867 77.0704 43.1786 75.8058C42.9554 74.9451 42.541 73.638 42.3072 73.0961C41.9671 72.2991 41.0533 70.5457 40.9789 70.5457C40.9257 70.5457 40.8939 70.5032 40.8939 70.45C40.8939 70.2906 40.235 69.2705 40.1394 69.2705C40.0862 69.2705 40.0437 69.2067 40.0437 69.1217C40.0437 68.7604 37.4934 66.3269 36.5901 65.8275C36.4201 65.7318 36.1013 65.5512 35.8994 65.4237C35.6975 65.2962 35.0705 65.0092 34.5179 64.7861C33.434 64.3504 30.5967 62.9477 29.8954 62.512C29.6616 62.3739 29.3959 62.2251 29.3109 62.1826C29.2259 62.1401 29.109 62.0657 29.0452 62.0126C28.9921 61.97 28.7796 61.8213 28.5777 61.6938C28.3758 61.5662 28.1101 61.3856 27.9826 61.3006C27.8551 61.2156 27.6106 61.0455 27.4406 60.9393C27.0687 60.6842 25.1984 59.2178 24.9009 58.9521C24.0933 58.1976 23.8913 58.0276 23.5194 57.7832C21.6704 56.5505 19.5451 56.1148 17.356 56.508C16.5484 56.6568 15.507 57.0181 14.9544 57.3581C14.5931 57.5813 14.3274 57.5069 14.3274 57.1987C14.3274 57.1243 14.2212 56.8268 14.0937 56.5505C13.7642 55.8279 13.2967 54.7546 12.8397 53.6494C12.7016 53.3306 12.4784 52.7993 12.3296 52.4805C11.979 51.6942 11.8408 51.3647 11.5645 50.674C10.7569 48.6868 10.4062 48.0492 9.75801 47.3798C9.06729 46.6678 8.48283 46.2852 7.56894 45.9346C6.98448 45.7114 6.70819 45.6795 5.6349 45.6795C4.58287 45.6901 4.28533 45.7326 3.73275 45.9452ZM6.4319 49.4519C6.89947 49.6857 7.52643 50.3658 7.52643 50.6315C7.52643 50.674 7.62207 50.8972 7.72834 51.1416C7.8346 51.386 8.1534 52.098 8.42969 52.7462C8.70598 53.3838 8.9929 54.0532 9.06729 54.2339C9.14167 54.4039 9.42859 55.0734 9.70488 55.7216C9.98117 56.3592 10.2681 57.0287 10.3425 57.2093C10.4169 57.3794 10.7038 58.0488 10.9801 58.6971C11.894 60.833 12.6166 62.1826 13.6261 63.5853C14.4018 64.6586 14.3381 64.5948 19.3751 69.6531C23.8063 74.1056 24.072 74.35 24.5077 74.4244C25.5597 74.5944 26.293 74.2437 26.6861 73.3936C26.9199 72.9048 26.9199 72.4372 26.6861 71.9484C26.5799 71.7146 24.784 69.8337 22.2974 67.3365C17.611 62.6289 17.4942 62.5014 16.9735 61.8319C16.7715 61.5662 16.5803 61.3324 16.5484 61.3006C16.389 61.1518 16.3784 60.8755 16.5378 60.748C17.0266 60.3335 17.8767 60.0998 18.9075 60.0998C19.8639 60.0998 19.9701 60.121 20.714 60.4823C21.1497 60.6949 21.7023 61.0668 21.9573 61.3006C22.2124 61.5344 22.935 62.1401 23.5513 62.6289C24.1783 63.1283 24.7627 63.5959 24.8477 63.6703C24.9328 63.7341 25.0815 63.8403 25.1772 63.9041C25.2834 63.9572 25.7085 64.2548 26.1442 64.5523C26.5692 64.8498 26.9943 65.1261 27.0793 65.158C27.1643 65.2005 27.4513 65.3705 27.7169 65.5512C28.1632 65.8381 28.7583 66.1675 30.1079 66.8583C30.9474 67.294 32.7114 68.1016 32.807 68.1016C32.9346 68.1016 33.8591 68.5373 34.2523 68.7817C35.1343 69.3449 35.4424 69.5787 36.1332 70.2694C36.9514 71.0876 37.7165 72.1822 38.3435 73.4149C39.0873 74.8813 39.2999 75.487 39.6718 77.2404C39.9162 78.3456 39.9375 78.6963 39.9375 80.981V83.5101H32.8921H25.8573L19.3644 76.996C13.8811 71.5021 11.7771 69.2811 11.7771 69.0155C11.7771 68.9836 11.6708 68.7923 11.5327 68.601C11.3945 68.3991 11.1395 67.9315 10.9588 67.5596C10.4912 66.6032 9.75801 65.0199 9.75801 64.9667C9.75801 64.9349 9.53486 64.4567 9.26919 63.8828C9.00353 63.309 8.69536 62.6501 8.58909 62.4164C8.48283 62.1826 8.27029 61.7044 8.1109 61.3537C7.9515 61.003 7.68583 60.4079 7.51581 60.0254C7.34578 59.6428 7.112 59.1434 6.99511 58.9096C6.52754 57.9107 5.93245 56.6036 5.93245 56.5717C5.93245 56.5292 5.40112 55.3709 4.86979 54.2339C4.76353 54.0001 4.47661 53.3944 4.24282 52.8737C3.53084 51.3647 3.5521 50.4827 4.30658 49.8239C5.08232 49.1331 5.61365 49.0481 6.4319 49.4519ZM43.4442 93.9773V100.831H33.9866H24.5289V93.9773V87.1231H33.9866H43.4442V93.9773Z" fill="#7C7C7C"/>
<path d="M36.0383 92.1917C35.9108 92.213 35.6026 92.4149 35.3476 92.638L34.8906 93.0525V93.9557C34.8906 94.774 34.9225 94.8909 35.1457 95.1353C35.6664 95.6878 36.1764 95.8366 37.5048 95.8366C38.5674 95.8366 38.7799 95.8047 39.1625 95.5922C39.4069 95.4647 39.6938 95.2415 39.8107 95.0821C40.2783 94.4977 40.2358 93.3075 39.747 92.7762C39.2475 92.2342 38.8225 92.1173 37.4729 92.1279C36.814 92.1386 36.1658 92.1705 36.0383 92.1917Z" fill="#7C7C7C"/>
<path d="M96.9353 45.9452C96.0108 46.2959 95.4369 46.6784 94.7675 47.3798C94.1086 48.0705 93.7898 48.655 92.9078 50.7803C92.759 51.1628 92.5678 51.6091 92.4827 51.7898C92.0471 52.7674 91.877 53.1606 91.4732 54.1276C91.2288 54.7121 90.9313 55.3709 90.825 55.5941C90.7187 55.8279 90.6231 56.0404 90.6231 56.0936C90.6231 56.1361 90.4849 56.4867 90.3043 56.8693L89.9855 57.5706L89.1673 57.1562C88.094 56.6249 86.9357 56.3698 85.5755 56.3805C83.4927 56.4017 81.633 57.1031 80.2091 58.4101C80.0071 58.5908 79.7415 58.8352 79.6246 58.9415C79.2102 59.324 77.8074 60.4186 77.2867 60.7692C76.9998 60.9711 76.7342 61.1518 76.7023 61.1837C76.6704 61.2156 76.5535 61.3112 76.4366 61.3856C75.8415 61.7575 75.5759 61.9382 75.4802 62.0126C75.4271 62.0657 75.2996 62.1401 75.2146 62.1826C75.1296 62.2251 74.8639 62.3739 74.6301 62.512C73.9288 62.9477 71.0915 64.3504 70.0075 64.7861C69.455 65.0092 68.828 65.2962 68.6261 65.4237C68.4242 65.5512 68.116 65.7318 67.9354 65.8275C67.0321 66.3269 64.4817 68.7604 64.4817 69.1217C64.4817 69.2067 64.4392 69.2705 64.3861 69.2705C64.2905 69.2705 63.6316 70.2906 63.6316 70.45C63.6316 70.5032 63.5997 70.5457 63.5466 70.5457C63.4722 70.5457 62.5583 72.2991 62.2183 73.0961C61.9845 73.638 61.5701 74.9451 61.3469 75.8058C61.0387 77.0704 60.8687 78.8982 60.8687 81.236V83.4782L60.263 83.5526C59.0091 83.7014 57.9358 84.6471 57.532 85.9542C57.3726 86.4855 57.3619 87.2825 57.3832 94.1898L57.4151 101.841L57.6914 102.425C58.042 103.169 58.6477 103.796 59.3278 104.126L59.8592 104.391H70.5389H81.2186L81.6968 104.147C82.3025 103.828 82.8976 103.254 83.2695 102.638L83.5564 102.16V94.0304C83.5564 87.5907 83.5245 85.8479 83.4183 85.6354C83.1739 85.1678 83.0038 84.8809 82.8869 84.764C82.8126 84.6896 84.5766 82.8619 88.4234 78.9938C91.537 75.8802 94.2786 73.1067 94.523 72.8198C95.0437 72.2141 95.6495 71.4171 95.7557 71.1833C95.7982 71.0983 95.9683 70.8113 96.1383 70.5457C96.574 69.8762 98.2742 66.4332 98.2742 66.2419C98.2742 66.21 98.4974 65.7318 98.763 65.158C99.0287 64.5842 99.3369 63.9253 99.4431 63.6915C99.5494 63.4578 99.8044 62.8946 100.017 62.4376C100.23 61.9807 100.4 61.5875 100.4 61.5662C100.4 61.545 100.612 61.0774 100.867 60.5355C101.675 58.8033 101.855 58.3995 102.291 57.4219C102.716 56.4549 103.077 55.6685 103.8 54.117C104.746 52.0873 104.756 50.2702 103.843 48.5487C103.194 47.3585 102.132 46.4553 100.761 45.9346C100.176 45.7114 99.9001 45.6795 98.8268 45.6795C97.7854 45.6901 97.4772 45.7326 96.9353 45.9452ZM99.475 49.3457C100.091 49.6007 100.591 50.1108 100.729 50.5996C100.899 51.2372 100.782 51.811 100.283 52.8737C100.038 53.3944 99.7513 54.0001 99.645 54.2339C98.9224 55.796 98.593 56.5292 98.593 56.5717C98.593 56.6036 97.9979 57.9107 97.5304 58.9096C97.4135 59.1434 97.1797 59.6428 97.0097 60.0254C96.8396 60.4079 96.574 61.003 96.4146 61.3537C96.2552 61.7044 96.0426 62.1826 95.9364 62.4164C95.8301 62.6501 95.5219 63.309 95.2563 63.8828C94.9906 64.4567 94.7675 64.9349 94.7675 64.9667C94.7675 64.988 94.5762 65.4237 94.3318 65.9444C94.098 66.4545 93.8004 67.092 93.6729 67.3577C93.556 67.6234 93.301 68.0909 93.0991 68.3991C92.9078 68.7073 92.7484 68.9836 92.7484 69.0048C92.7484 69.2811 90.6656 71.4808 85.161 76.996L78.6682 83.5101H71.6334H64.588V80.981C64.588 78.7069 64.6093 78.335 64.843 77.2404C65.2468 75.3914 65.3956 74.9345 66.1714 73.4149C67.4147 70.9814 69.0299 69.3236 71.1021 68.346C71.389 68.2078 71.6759 68.1016 71.7397 68.1016C71.8778 68.1016 76.1178 66.0188 76.4898 65.7637C76.6385 65.6681 76.9467 65.4662 77.1805 65.3174C77.4143 65.1793 77.9562 64.818 78.3813 64.531C78.817 64.2441 79.2527 63.9572 79.3483 63.9041C79.4439 63.8403 79.5927 63.7341 79.6777 63.6597C79.7627 63.5959 80.2409 63.2134 80.7404 62.8095C81.7393 62.0232 81.7287 62.0338 82.4938 61.3537C82.7913 61.088 83.3758 60.6949 83.7902 60.4823C84.5234 60.121 84.6297 60.0998 85.618 60.0998C86.6062 60.0891 86.7125 60.1104 87.3926 60.4611C87.9771 60.748 88.1152 60.8649 88.094 61.0349C88.0727 61.1518 88.0196 61.2687 87.9771 61.3006C87.9452 61.3324 87.7433 61.5662 87.5414 61.8319C87.0207 62.512 86.8719 62.6714 82.2281 67.3365C79.9221 69.6531 77.9668 71.6934 77.8925 71.8528C77.7331 72.2141 77.7224 72.9792 77.8712 73.383C77.935 73.5424 78.1581 73.8399 78.3813 74.0206C78.7532 74.35 78.817 74.3712 79.6246 74.3712H80.4641L85.1929 69.6105C90.4743 64.2973 90.0811 64.7117 90.8462 63.649C91.8983 62.1932 92.6209 60.8755 93.5454 58.6971C93.8217 58.0488 94.1086 57.3794 94.183 57.2093C94.2574 57.0287 94.5443 56.3592 94.8206 55.7216C95.0969 55.0734 95.3838 54.4039 95.4582 54.2339C95.5326 54.0532 95.8195 53.3838 96.0958 52.7462C96.3721 52.098 96.6909 51.386 96.7971 51.1416C96.9034 50.8972 96.999 50.674 96.999 50.6315C96.999 50.3658 97.626 49.6857 98.0936 49.4519C98.7205 49.1438 98.9543 49.1225 99.475 49.3457ZM79.9965 93.9773V100.831H70.5389H61.0812V93.9773V87.1231H70.5389H79.9965V93.9773Z" fill="#7C7C7C"/>
<path d="M65.4122 92.3192C64.849 92.5849 64.509 93.0099 64.4239 93.5625C64.2858 94.5295 64.5727 95.1671 65.3697 95.5922C65.7523 95.8047 65.9648 95.8366 67.0275 95.8366C68.3558 95.8366 68.8658 95.6878 69.3865 95.1353C69.6097 94.8909 69.6416 94.774 69.6416 93.9557V93.0525L69.1953 92.6486C68.6533 92.1705 68.4195 92.1173 66.9424 92.1173C66.0817 92.1279 65.7204 92.1705 65.4122 92.3192Z" fill="#7C7C7C"/>
</svg>
