<svg width="107" height="104" viewBox="0 0 107 104" fill="none" xmlns="http://www.w3.org/2000/svg">
<path d="M14.5181 0.163101C9.1484 1.33661 6.0072 6.9315 7.76153 12.1589C8.4846 14.3163 10.1797 16.3077 12.1474 17.3152C13.9965 18.2635 15.6679 18.5954 17.5052 18.3702C21.5591 17.8724 24.6529 15.0512 25.5538 11.0565C25.8264 9.83562 25.7316 7.73754 25.3641 6.56403C24.8662 4.97565 24.2262 3.94439 22.9934 2.69977C21.9858 1.68036 21.725 1.4907 20.6227 0.957291C19.9352 0.625391 18.9987 0.269783 18.5246 0.174953C17.4933 -0.0502644 15.5138 -0.0621166 14.5181 0.163101ZM18.0267 3.61249C19.0698 3.92069 19.8048 4.35927 20.5753 5.12975C21.3694 5.92394 21.8317 6.71813 22.1044 7.7731C23.0289 11.3292 20.2671 14.9208 16.5924 14.9327C15.4664 14.9445 14.7077 14.7667 13.8069 14.2926C11.6851 13.1783 10.4167 10.6891 10.7842 8.33022C11.1279 6.08989 12.9771 4.06293 15.1226 3.55322C15.8812 3.37542 17.3274 3.41098 18.0267 3.61249Z" fill="#7C7C7C"/>
<path d="M15.0256 18.8325C12.1452 19.3541 9.59664 21.3336 8.41129 23.977C7.65266 25.6602 7.68822 24.5815 7.70007 43.2272V60.1897L7.99641 61.2091C8.16236 61.7662 8.4587 62.5722 8.64836 63.0108L9.00396 63.7932V80.4949C9.00396 98.9627 8.9684 98.1804 9.76259 99.8162L10.1419 100.622H5.8035C1.53621 100.622 1.46509 100.622 0.943528 100.883C-0.182562 101.464 -0.324805 102.791 0.647188 103.704L0.967235 104.001H53.3364H105.705L106.026 103.704C106.998 102.791 106.855 101.464 105.729 100.895C105.208 100.622 105.148 100.622 100.371 100.622C97.7162 100.622 95.5351 100.61 95.5351 100.587C95.5351 100.575 95.6536 100.267 95.784 99.911C96.1396 98.9983 96.2226 97.2677 95.95 96.2483C95.7129 95.3118 95.4166 94.7073 94.812 93.9131L94.3498 93.3086V88.1404V82.9604H96.353C98.2259 82.9604 98.3681 82.9485 98.7474 82.6878C99.5535 82.1544 99.4586 82.9722 100.573 66.4958C101.379 54.5355 101.569 51.3232 101.462 51.0031C101.308 50.5646 100.763 50.043 100.324 49.9363C100.087 49.8771 89.715 50.3393 82.7332 50.7187C81.5242 50.7898 75.1232 51.1098 68.5089 51.4299C61.8946 51.7618 54.9366 52.1055 53.0637 52.2004C51.1909 52.2952 49.4484 52.3782 49.1995 52.3782C48.832 52.3782 48.4527 52.1648 46.8643 51.0624C45.833 50.3393 44.9796 49.723 44.9914 49.6755C44.9914 49.6281 45.1455 49.2725 45.3352 48.8814C45.6552 48.2294 45.6789 48.0635 45.6908 46.807C45.6908 45.4557 45.6789 45.4201 45.2522 44.5429C44.5647 43.1442 43.3675 42.1604 41.8977 41.7811C41.3168 41.627 40.3685 41.5914 36.5635 41.5914H31.9288L31.3954 41.2595C31.0161 41.0106 30.1508 39.9912 28.1475 37.4071L25.4212 33.8866L25.3501 30.0697C25.2789 25.755 25.2434 25.5416 24.3662 23.7518C23.2164 21.4403 21.3673 19.8519 18.9017 19.0696C17.9771 18.7851 15.9739 18.6547 15.0256 18.8325ZM17.7163 22.3293C18.6765 22.5901 19.4707 23.0405 20.1937 23.7755C21.3435 24.9253 21.9244 26.4188 21.9244 28.2917V29.2874L21.225 28.588C18.2142 25.5772 13.1764 26.7981 11.9437 30.8521C11.4932 32.3456 11.7777 34.3251 12.643 35.6172C12.8327 35.8898 14.99 38.4858 17.4556 41.4017L21.9244 46.6884V53.4213C21.9244 59.4192 21.9481 60.3082 22.1496 61.6832C22.683 65.2867 23.1808 66.6854 26.1087 72.8256C27.4126 75.5638 28.7283 78.3375 29.0365 78.9894C29.3447 79.6414 30.7316 82.5455 32.1185 85.4496C37.2985 96.3075 37.0851 95.7741 36.931 97.0543C36.6939 99.0813 35.2122 100.48 33.1971 100.599C32.0236 100.658 31.182 100.361 30.3049 99.5554C29.6173 98.9272 30.0322 99.7688 16.8866 72.1736C15.476 69.2102 13.6861 65.4764 12.9156 63.8761C12.1452 62.2759 11.4339 60.6875 11.3273 60.3319C11.1613 59.7511 11.1376 57.8901 11.1376 43.1798C11.1376 27.3197 11.1495 26.644 11.3628 25.9565C12.1926 23.2776 15.0611 21.6418 17.7163 22.3293ZM17.8941 30.449C18.1312 30.5083 18.5105 30.7691 18.7476 31.0061C18.9728 31.2551 21.1302 33.9933 23.5246 37.087C25.919 40.1808 28.0764 42.919 28.3134 43.1679C28.8706 43.7725 29.9374 44.4955 30.696 44.7919C31.265 45.0171 31.5613 45.0289 36.125 45.0289C40.5938 45.0289 40.9849 45.0408 41.3642 45.2542C42.5615 45.8824 42.6326 47.5537 41.4946 48.2531C41.0679 48.5257 41.0679 48.5257 35.3782 48.5494C32.2488 48.5613 29.3921 48.5257 29.0365 48.4665C28.1119 48.3124 27.5904 48.0397 27.1162 47.4826C26.891 47.21 24.1647 43.9858 21.0709 40.3231C16.9696 35.4631 15.4049 33.531 15.3101 33.1991C14.9426 31.99 15.3338 31.0536 16.4125 30.5557C16.9459 30.3068 17.3015 30.2831 17.8941 30.449ZM25.9309 51.015C26.5354 51.418 27.5548 51.7499 28.6335 51.8922C29.7122 52.0463 40.5938 52.0581 41.3642 51.9159L41.8858 51.8092L44.2328 53.4213C45.6671 54.417 46.6035 55.14 46.6272 55.2823C46.6628 55.4127 47.0421 59.7274 47.4688 64.8837C48.9742 82.83 48.8794 81.8106 49.1639 82.2136C49.721 82.996 49.235 82.9604 59.7847 82.9604H69.3387V89.468V95.9875L68.1533 96.023L66.9561 96.0586L66.482 95.0748C65.6522 93.356 64.1824 92.1469 62.3451 91.6728C61.3494 91.412 59.7254 91.4831 58.7534 91.8269C56.9754 92.467 55.5174 93.9131 54.8536 95.703C54.4862 96.7343 54.4743 98.8323 54.8536 99.8517C54.9959 100.231 55.1144 100.575 55.1144 100.587C55.1144 100.61 51.5702 100.622 47.2318 100.622C42.8934 100.622 39.3491 100.599 39.3491 100.575C39.3491 100.551 39.5151 100.184 39.7047 99.7688C40.4278 98.2397 40.5938 96.0823 40.1078 94.4584C40.0129 94.1028 38.3771 90.5467 36.4806 86.5757C34.584 82.5929 31.668 76.4646 29.9848 72.9441C26.9977 66.6617 26.4287 65.3104 25.9664 63.2835C25.4449 61.0313 25.3619 59.9763 25.3619 55.2349C25.3619 52.7575 25.3856 50.7187 25.4212 50.7187C25.4567 50.7187 25.682 50.849 25.9309 51.015ZM97.977 53.765C97.9532 53.9547 97.8584 55.1756 97.7754 56.4913L97.6332 58.8858L97.0287 58.945C96.4953 59.0043 87.0242 59.2532 85.7559 59.2532H85.2818L85.4003 56.681L85.5188 54.0969L85.8744 54.0495C86.3723 54.0021 96.2582 53.4805 97.2302 53.4568L98.0481 53.445L97.977 53.765ZM82.022 54.8911C82.0102 55.8868 81.8087 59.2651 81.7613 59.3244C81.702 59.3836 70.3463 59.7274 68.426 59.7274H67.0865V57.3567C67.0865 56.0528 67.1221 54.9859 67.1813 54.9741C67.8214 54.9148 80.0188 54.2984 80.8722 54.2866L82.022 54.2747V54.8911ZM63.649 57.4633V59.8222L62.677 59.8933C62.1317 59.9289 60.4959 59.9882 59.0261 60.0237C57.5562 60.0474 55.0433 60.1185 53.443 60.1541L50.5271 60.2371L50.3848 58.3524C50.3018 57.3211 50.2189 56.3254 50.1833 56.1357C50.1359 55.8868 50.1596 55.8157 50.3374 55.8038C50.4559 55.8038 53.3482 55.6497 56.7739 55.4719C60.1996 55.2823 63.1393 55.1282 63.3289 55.1163L63.649 55.1045V57.4633ZM97.1116 66.2113C96.9694 68.2857 96.8509 69.9926 96.8509 70.0044C96.839 70.0281 94.1127 70.04 90.7937 70.04H84.7365L84.8076 68.8783C84.9025 67.1359 85.104 63.2597 85.104 62.9753C85.104 62.7263 85.1395 62.7145 89.2883 62.6078C91.576 62.5485 94.3379 62.4893 95.4166 62.4774L97.3843 62.4537L97.1116 66.2113ZM81.6072 63.8406C81.5242 65.0733 81.3108 69.388 81.3108 69.7674V70.04H74.1987H67.0865V66.6736V63.2953L67.5962 63.236C67.8689 63.2005 70.8441 63.1056 74.1987 63.0345C77.5532 62.9634 80.3151 62.8804 80.327 62.8686C80.3507 62.8567 80.6589 62.833 81.0145 62.8212L81.6783 62.7975L81.6072 63.8406ZM63.649 66.6617V70.04H57.4851H51.3213V69.7674C51.3213 69.6251 51.2146 68.2027 51.0723 66.6262C50.9419 65.0378 50.8471 63.722 50.8708 63.6983C50.8945 63.6865 53.7394 63.5916 57.1888 63.4968C60.65 63.402 63.5067 63.3072 63.566 63.3072C63.6134 63.2953 63.649 64.8007 63.649 66.6617ZM13.6506 73.4183C14.2077 74.5918 15.9739 78.3138 17.586 81.6802L20.5138 87.8204L20.4782 92.7633L20.4427 97.7181L20.1463 98.3108C19.9922 98.6308 19.6129 99.1405 19.3166 99.4369C18.558 100.207 17.8112 100.539 16.7206 100.599C15.4168 100.67 14.6226 100.35 13.6743 99.3895C12.3941 98.0974 12.5008 99.4606 12.4652 84.2643C12.4534 76.8321 12.4771 71.1068 12.5363 71.1661C12.5956 71.2372 13.0934 72.2448 13.6506 73.4183ZM63.649 76.5002V79.5229H57.9C52.5066 79.5229 52.151 79.511 52.151 79.3095C52.151 79.2028 52.0443 77.9108 51.9139 76.4409C51.7835 74.9829 51.6769 73.7146 51.6769 73.6316C51.6769 73.5131 52.9096 73.4775 57.6629 73.4775H63.649V76.5002ZM81.0263 75.6942C80.9908 76.9269 80.9196 78.2782 80.8841 78.7168L80.8011 79.5229H73.9497H67.0865V76.5002V73.4775H74.092H81.1093L81.0263 75.6942ZM96.6019 73.8568C96.6019 74.0702 96.519 75.3385 96.4241 76.678C96.3293 78.0175 96.2463 79.2028 96.2463 79.3095C96.2463 79.511 95.8789 79.5229 90.2484 79.5229H84.2505L84.3216 79.0724C84.3572 78.8354 84.4165 77.7211 84.452 76.6187C84.4876 75.5045 84.5468 74.3547 84.5824 74.0347L84.6535 73.4775H90.6277H96.6019V73.8568ZM90.9122 87.2514V91.5542L90.0588 91.5187C87.5814 91.4001 85.2818 92.7752 84.1794 95.0392L83.7171 95.9993H78.2763H72.8355L72.7999 89.4799L72.7762 82.9604H81.8442H90.9122V87.2514ZM61.7643 95.0985C62.4518 95.3474 63.0326 95.8571 63.3645 96.5446C64.2417 98.3463 63.0326 100.456 61.0293 100.599C58.9905 100.753 57.5207 98.8798 58.1015 96.9002C58.2793 96.2957 59.275 95.2763 59.8558 95.0866C60.4248 94.9088 61.2546 94.9088 61.7643 95.0985ZM90.6989 95.0748C91.3982 95.2763 92.2754 96.1179 92.5006 96.7935C92.9985 98.2397 92.4176 99.6858 91.0782 100.338C89.2764 101.215 87.1665 100.006 87.0242 98.0026C86.8701 95.9756 88.743 94.4821 90.6989 95.0748ZM25.8242 98.9272L26.6421 100.622H24.7455C23.7024 100.622 22.8727 100.587 22.8964 100.527C23.6906 98.9864 23.9276 98.0144 23.9395 96.3549L23.9513 95.1103L24.4847 96.1771C24.7692 96.758 25.3738 98.0026 25.8242 98.9272ZM83.8949 99.8755C83.9542 100.065 84.049 100.302 84.0964 100.409C84.1794 100.61 83.7171 100.622 75.3248 100.622C70.4529 100.622 66.4938 100.587 66.5175 100.527C66.5413 100.48 66.6361 100.243 66.7309 99.994L66.8969 99.5554H75.3366H83.7764L83.8949 99.8755Z" fill="#7C7C7C"/>
<path d="M11.0188 102.278C10.4261 102.871 10.7699 103.985 11.5403 103.985C12.1093 103.985 12.4886 103.392 12.3227 102.752C12.1686 102.124 11.4337 101.863 11.0188 102.278Z" fill="#7C7C7C"/>
</svg>
