<svg width="258" height="59" viewBox="0 0 258 59" fill="none" xmlns="http://www.w3.org/2000/svg">
<path d="M27.8274 0.0206299C22.1267 0.294758 16.8763 2.09338 12.2776 5.34655C10.3503 6.7088 8.47061 8.43189 6.90416 10.2725C3.16987 14.6613 0.820195 20.1047 0.17963 25.839C-0.514082 32.0908 0.811803 38.3566 3.97826 43.7693C5.7545 46.8071 8.13494 49.5623 10.907 51.7861C14.9014 54.9945 19.7099 57.0981 24.7673 57.8505C26.2442 58.0715 27.4442 58.1554 29.047 58.1582C30.5379 58.1582 31.4247 58.1079 32.7813 57.9344C38.3898 57.2295 43.6905 54.8771 47.9982 51.1819C52.9353 46.9469 56.3144 41.2126 57.5899 34.9049C57.9927 32.9244 58.1634 31.1789 58.1634 29.0838C58.1634 27.9314 58.141 27.3579 58.0515 26.3985C57.5312 20.7257 55.3661 15.3662 51.7913 10.9018C50.4906 9.27665 48.9073 7.69342 47.271 6.38152C42.9352 2.90178 37.6793 0.733921 32.1911 0.160492C30.882 0.026226 28.9995 -0.0353165 27.8274 0.0206299ZM31.1309 0.731125C32.5463 0.843014 33.8331 1.02483 35.089 1.29617C39.9031 2.33673 44.2807 4.56612 48.0122 7.87804C48.4877 8.30042 49.5563 9.35498 50.0262 9.86687C54.1941 14.4068 56.7787 20.1691 57.3661 26.2306C57.4752 27.3495 57.4948 27.7412 57.4948 29.0838C57.4948 30.4293 57.4752 30.8349 57.3661 31.937C56.7675 38.021 54.1941 43.7581 50.0262 48.3008C49.5563 48.8127 48.4877 49.8672 48.0122 50.2896C44.7702 53.1679 41.0499 55.2211 36.9352 56.4099C35.0331 56.9554 33.1002 57.2911 30.8932 57.4533C30.2638 57.5009 27.9113 57.5009 27.2848 57.4533C23.2372 57.154 19.805 56.2225 16.3308 54.4826C13.4105 53.0197 10.8231 51.098 8.49579 48.6644C5.12793 45.1427 2.71112 40.7622 1.5251 36.0349C1.10551 34.3594 0.870545 32.8657 0.719495 30.902C0.671942 30.2866 0.671942 27.881 0.719495 27.2656C0.814601 26.032 0.929287 25.0894 1.10551 24.0908C1.95307 19.2991 4.00624 14.8515 7.12794 11.0417C8.10977 9.84449 9.54754 8.38993 10.7951 7.33258C12.4595 5.92278 14.3532 4.67522 16.3336 3.6822C18.8343 2.42904 21.391 1.57869 24.0959 1.10036C25.3435 0.879379 26.4316 0.761894 27.9421 0.680775C28.412 0.655602 30.5967 0.691963 31.1309 0.731125Z" fill="#E1C561"/>
<path d="M20.6735 11.1866C18.984 11.4048 17.5826 12.3811 16.8497 13.8552C16.0777 15.4021 16.0693 17.4105 16.8273 18.9462C17.2665 19.8357 17.8903 20.4958 18.7294 20.9602L18.9868 21.1028L18.7462 21.1616C17.9099 21.3658 16.7994 21.8944 15.8063 22.5546C14.5588 23.3882 13.5769 24.3392 12.7294 25.5336C10.6035 28.5323 9.96293 32.8456 11.0566 36.7785C11.9825 40.1044 14.2007 43.1338 17.149 45.1058C19.2162 46.4877 21.4791 47.31 23.9603 47.5814C24.4134 47.6317 26.3127 47.6317 26.8414 47.5814C28.8862 47.3884 30.6205 46.9184 32.268 46.1072C33.5687 45.4667 34.5813 44.759 35.566 43.7995C37.6807 41.738 38.9338 39.2037 39.3506 36.1351C39.4205 35.6064 39.4205 34.1295 39.3506 33.6176C39.1884 32.4708 38.9058 31.5225 38.4247 30.5267C37.745 29.1169 36.7799 27.9141 35.5408 26.9294C34.2848 25.9308 32.7296 25.2175 31.2442 24.9574C31.0736 24.9266 30.9701 24.8959 30.9785 24.8791C31.0988 24.591 34.475 17.0385 34.489 17.0245C34.5086 17.0021 43.8429 36.9939 44.022 37.4358C44.3045 38.1379 44.3269 38.8065 44.0863 39.3212C43.9157 39.6848 43.636 39.9617 43.2611 40.138L43.0933 40.2163L46.4192 40.2191H49.7451L49.5521 40.082C48.8724 39.6065 47.8989 38.51 47.3367 37.5953C47.236 37.4302 44.3688 31.6316 40.9646 24.7112C37.5576 17.7881 34.7631 12.1153 34.752 12.1041C34.738 12.093 33.9324 13.8804 32.9561 16.0734C31.9799 18.2692 30.7044 21.1392 30.1197 22.4483L29.0568 24.8343H28.9141C28.8358 24.8343 28.5953 24.8539 28.3799 24.8763C24.3183 25.3071 21.5686 27.7434 21.0372 31.3882C20.9756 31.8078 20.9169 32.7449 20.9448 32.8568C20.956 32.9043 20.9868 32.8204 21.0539 32.5547C21.4372 31.0274 22.1756 29.7267 23.2498 28.6805C23.6721 28.2721 23.9575 28.0371 24.4358 27.7211C25.3924 27.0805 26.5253 26.6329 27.7225 26.4176C28.2764 26.3197 28.405 26.3057 28.3855 26.3504C28.1841 26.8539 23.8456 36.5351 23.6833 36.8484C23.1239 37.9253 22.4833 38.8652 21.8875 39.489C21.5546 39.8387 21.3253 40.0233 21.0791 40.138L20.9113 40.2191H23.8204L26.7295 40.2163L26.6204 40.1547C25.7141 39.6428 25.2554 39.047 25.2134 38.3254C25.191 37.9505 25.2861 37.5337 25.4791 37.1869C25.5239 37.1086 26.6344 34.6302 27.9491 31.6791L30.3379 26.3141L30.4918 26.3308C31.11 26.4008 31.9687 26.6609 32.5757 26.9574C33.2275 27.2763 33.7366 27.6371 34.2792 28.163C35.1408 28.9994 35.8121 30.0679 36.3072 31.3854C36.6205 32.2274 36.8583 33.1673 37.0121 34.1771C37.0904 34.7001 37.0988 35.6036 37.0261 36.1435C36.7632 38.1603 35.7897 40.1212 34.2568 41.7212C32.5981 43.4499 30.4498 44.6023 28.0582 45.0415C27.3225 45.1758 26.9085 45.2093 25.9603 45.2121C25.0372 45.2121 24.7211 45.1897 23.9323 45.0723C20.542 44.5604 17.5574 42.8205 15.5014 40.1491C14.3434 38.647 13.5098 36.8428 13.107 34.9659C12.542 32.3477 12.7518 29.8022 13.7028 27.6427C14.2427 26.4204 14.9616 25.3658 15.9462 24.3476C17.3644 22.8819 19.3057 21.6791 20.9085 21.2679L21.2693 21.1756L21.1043 21.142C20.3966 20.9937 19.4959 20.4427 18.8134 19.7406C18.1168 19.0217 17.6861 18.2552 17.5098 17.4217C17.4287 17.0412 17.4231 16.3755 17.4959 16.037C17.6133 15.5 17.8203 15.0077 18.1168 14.5657C18.8861 13.416 20.0022 12.7587 21.44 12.6076C21.8148 12.5685 22.6484 12.5909 23.0372 12.6524C24.0749 12.8118 25.0763 13.1923 25.8987 13.7321L25.9882 13.7909V12.7503V11.7125L25.8568 11.8888C25.7812 11.9867 25.6638 12.1013 25.5854 12.1489C25.4624 12.2244 25.4232 12.2328 25.2358 12.2328C24.998 12.23 24.8162 12.1601 24.4861 11.9475C23.9798 11.6202 23.026 11.3097 22.1756 11.1978C21.8204 11.1531 20.9896 11.1447 20.6735 11.1866Z" fill="#E1C561"/>
<path d="M78.9494 33.6656V36.002H70.015V22.5163H78.9494V24.8433H72.8374V28.0956H78.6036V30.2638H72.8374V33.6656H78.9494ZM86.2016 30.6189L90.4351 36.002H87.1361L83.753 31.703H83.6782V36.002H80.9587V25.9835H83.6782V30.0114H83.753L87.08 25.9835H90.2015L86.2016 30.6189ZM95.2387 34.1889C95.8431 34.1889 96.354 34.0145 96.7714 33.6656C97.1951 33.3104 97.4069 32.865 97.4069 32.3291V31.6002L95.2948 31.731C94.7839 31.7684 94.3883 31.8961 94.1079 32.1142C93.8338 32.3323 93.6967 32.6189 93.6967 32.974C93.6967 33.3478 93.8369 33.6438 94.1173 33.8618C94.3976 34.0799 94.7715 34.1889 95.2387 34.1889ZM94.3416 36.1608C93.3758 36.1608 92.5752 35.8773 91.9397 35.3104C91.3042 34.7434 90.9865 34.0145 90.9865 33.1235C90.9865 32.2139 91.3229 31.5005 91.9958 30.9834C92.6687 30.4663 93.6313 30.1703 94.8836 30.0955L97.4069 29.946V29.2825C97.4069 28.8214 97.2543 28.4601 96.949 28.1984C96.6499 27.9367 96.2418 27.8059 95.7247 27.8059C95.2263 27.8059 94.8182 27.918 94.5004 28.1423C94.1889 28.3666 93.9989 28.6688 93.9304 29.0488H91.4351C91.4849 28.0644 91.9055 27.2732 92.6967 26.6751C93.488 26.0707 94.5378 25.7685 95.8462 25.7685C97.1297 25.7685 98.1577 26.0738 98.9302 26.6844C99.7028 27.295 100.089 28.1049 100.089 29.1143V36.002H97.4536V34.4693H97.3976C97.1234 34.9926 96.706 35.407 96.1453 35.7122C95.5845 36.0113 94.9833 36.1608 94.3416 36.1608ZM110.051 25.9835V28.0395H107.07V36.002H104.351V28.0395H101.36V25.9835H110.051ZM115.752 27.7872C115.16 27.7872 114.665 27.9897 114.266 28.3946C113.874 28.7996 113.653 29.3167 113.603 29.946H117.855C117.824 29.3043 117.615 28.784 117.229 28.3853C116.849 27.9866 116.357 27.7872 115.752 27.7872ZM117.892 32.9366H120.397C120.248 33.921 119.755 34.7154 118.92 35.3197C118.092 35.9178 117.061 36.2169 115.827 36.2169C114.288 36.2169 113.079 35.7559 112.201 34.8338C111.329 33.9117 110.893 32.6469 110.893 31.0394C110.893 29.4382 111.329 28.161 112.201 27.2078C113.073 26.2483 114.248 25.7685 115.724 25.7685C117.176 25.7685 118.332 26.2234 119.191 27.133C120.051 28.0426 120.481 29.2607 120.481 30.7871V31.6189H113.575V31.7871C113.575 32.5036 113.783 33.0861 114.201 33.5347C114.625 33.9771 115.182 34.1983 115.874 34.1983C116.372 34.1983 116.802 34.0861 117.163 33.8618C117.525 33.6313 117.768 33.3229 117.892 32.9366ZM127.911 25.8246C129.182 25.8246 130.182 26.2825 130.911 27.1984C131.646 28.1143 132.014 29.379 132.014 30.9927C132.014 32.6002 131.652 33.8649 130.93 34.787C130.207 35.7029 129.216 36.1608 127.958 36.1608C127.241 36.1608 126.609 35.9988 126.06 35.6749C125.518 35.3446 125.113 34.8929 124.846 34.3197H124.789V39.2729H122.061V25.9835H124.752V27.7311H124.808C125.082 27.133 125.487 26.6657 126.023 26.3293C126.565 25.9928 127.194 25.8246 127.911 25.8246ZM126.995 33.9646C127.674 33.9646 128.213 33.6967 128.612 33.1609C129.017 32.6251 129.219 31.9024 129.219 30.9927C129.219 30.0831 129.017 29.3604 128.612 28.8245C128.213 28.2825 127.674 28.0115 126.995 28.0115C126.328 28.0115 125.793 28.2856 125.388 28.8339C124.983 29.3759 124.78 30.0955 124.78 30.9927C124.78 31.8961 124.98 32.6189 125.378 33.1609C125.783 33.6967 126.322 33.9646 126.995 33.9646ZM136.303 36.002H133.63V25.9835H136.303V32.245H136.378L140.359 25.9835H143.032V36.002H140.359V29.6656H140.284L136.303 36.002ZM151.565 36.002V31.8992H147.714V36.002H144.995V25.9835H147.714V29.8339H151.565V25.9835H154.284V36.002H151.565ZM160.116 34.1889C160.72 34.1889 161.231 34.0145 161.648 33.6656C162.072 33.3104 162.284 32.865 162.284 32.3291V31.6002L160.172 31.731C159.661 31.7684 159.265 31.8961 158.985 32.1142C158.711 32.3323 158.574 32.6189 158.574 32.974C158.574 33.3478 158.714 33.6438 158.994 33.8618C159.275 34.0799 159.649 34.1889 160.116 34.1889ZM159.219 36.1608C158.253 36.1608 157.452 35.8773 156.817 35.3104C156.181 34.7434 155.864 34.0145 155.864 33.1235C155.864 32.2139 156.2 31.5005 156.873 30.9834C157.546 30.4663 158.508 30.1703 159.761 30.0955L162.284 29.946V29.2825C162.284 28.8214 162.131 28.4601 161.826 28.1984C161.527 27.9367 161.119 27.8059 160.602 27.8059C160.103 27.8059 159.695 27.918 159.377 28.1423C159.066 28.3666 158.876 28.6688 158.807 29.0488H156.312C156.362 28.0644 156.783 27.2732 157.574 26.6751C158.365 26.0707 159.415 25.7685 160.723 25.7685C162.007 25.7685 163.035 26.0738 163.807 26.6844C164.58 27.295 164.966 28.1049 164.966 29.1143V36.002H162.331V34.4693H162.275C162 34.9926 161.583 35.407 161.022 35.7122C160.462 36.0113 159.86 36.1608 159.219 36.1608ZM173.368 36.002H170.695V25.9835H173.368V32.245H173.443L177.424 25.9835H180.097V36.002H177.424V29.6656H177.349L173.368 36.002ZM194.919 36.002L193.891 32.731H189.153L188.125 36.002H185.227L189.91 22.5163H193.227L197.919 36.002H194.919ZM191.489 25.0957L189.76 30.6189H193.283L191.554 25.0957H191.489ZM202.816 31.1983C202.772 31.9771 202.682 32.6562 202.545 33.2357C202.408 33.8089 202.208 34.3197 201.947 34.7683C201.685 35.2169 201.336 35.5565 200.9 35.787C200.47 36.0113 199.953 36.1234 199.349 36.1234C198.987 36.1234 198.697 36.0798 198.479 35.9926V33.6936C198.654 33.7372 198.85 33.759 199.068 33.759C199.511 33.759 199.828 33.5223 200.021 33.0487C200.221 32.5752 200.345 31.8992 200.395 31.0208L200.676 25.9835H208.274V36.002H205.554V28.0395H203.012L202.816 31.1983ZM212.918 36.002H210.246V25.9835H212.918V32.245H212.993L216.974 25.9835H219.647V36.002H216.974V29.6656H216.9L212.918 36.002ZM228.18 36.002V31.8992H224.329V36.002H221.61V25.9835H224.329V29.8339H228.18V25.9835H230.899V36.002H228.18ZM236.731 34.1889C237.335 34.1889 237.846 34.0145 238.264 33.6656C238.687 33.3104 238.899 32.865 238.899 32.3291V31.6002L236.787 31.731C236.276 31.7684 235.88 31.8961 235.6 32.1142C235.326 32.3323 235.189 32.6189 235.189 32.974C235.189 33.3478 235.329 33.6438 235.609 33.8618C235.89 34.0799 236.264 34.1889 236.731 34.1889ZM235.834 36.1608C234.868 36.1608 234.067 35.8773 233.432 35.3104C232.796 34.7434 232.479 34.0145 232.479 33.1235C232.479 32.2139 232.815 31.5005 233.488 30.9834C234.161 30.4663 235.123 30.1703 236.376 30.0955L238.899 29.946V29.2825C238.899 28.8214 238.746 28.4601 238.441 28.1984C238.142 27.9367 237.734 27.8059 237.217 27.8059C236.718 27.8059 236.31 27.918 235.993 28.1423C235.681 28.3666 235.491 28.6688 235.423 29.0488H232.927C232.977 28.0644 233.398 27.2732 234.189 26.6751C234.98 26.0707 236.03 25.7685 237.338 25.7685C238.622 25.7685 239.65 26.0738 240.422 26.6844C241.195 27.295 241.581 28.1049 241.581 29.1143V36.002H238.946V34.4693H238.89C238.616 34.9926 238.198 35.407 237.637 35.7122C237.077 36.0113 236.475 36.1608 235.834 36.1608Z" fill="#7C7C7C"/>
</svg>
