<svg width="35" height="35" viewBox="0 0 35 35" fill="none" xmlns="http://www.w3.org/2000/svg">
<circle cx="17.5" cy="17.5" r="16.9328" stroke="#7C7C7C" stroke-width="1.13446"/>
<path d="M27.6063 12.7025C27.758 12.1898 27.6063 11.8125 26.8762 11.8125H24.4604C23.8451 11.8125 23.5621 12.1365 23.4104 12.4975C23.4104 12.4975 22.1799 15.4957 20.4408 17.4398C19.8789 18.0018 19.6205 18.1822 19.3129 18.1822C19.1611 18.1822 18.9274 18.0018 18.9274 17.4891V12.7025C18.9274 12.0873 18.7551 11.8125 18.2465 11.8125H14.4484C14.0629 11.8125 13.8332 12.0996 13.8332 12.3662C13.8332 12.9486 14.7027 13.084 14.793 14.7246V18.2848C14.793 19.0641 14.6535 19.2076 14.3459 19.2076C13.5256 19.2076 11.5322 16.1971 10.351 12.7518C10.1131 12.0832 9.8793 11.8125 9.25996 11.8125H6.84414C6.15508 11.8125 6.01562 12.1365 6.01562 12.4975C6.01562 13.1373 6.83594 16.316 9.83418 20.516C11.8316 23.383 14.6453 24.9375 17.2047 24.9375C18.7428 24.9375 18.9315 24.593 18.9315 23.9982C18.9315 21.2584 18.792 21 19.5631 21C19.9199 21 20.5352 21.1805 21.9707 22.5627C23.6114 24.2033 23.8821 24.9375 24.8008 24.9375H27.2166C27.9057 24.9375 28.2543 24.593 28.0534 23.9121C27.594 22.4807 24.4891 19.5357 24.3496 19.3389C23.9928 18.8795 24.0953 18.6744 24.3496 18.2643C24.3537 18.2602 27.3028 14.1094 27.6063 12.7025Z" fill="#7C7C7C"/>
</svg>
